<?xml version="1.0" standalone="no"?>
<!DOCTYPE svg PUBLIC "-//W3C//DTD SVG 20010904//EN"
 "http://www.w3.org/TR/2001/REC-SVG-20010904/DTD/svg10.dtd">
<svg version="1.0" xmlns="http://www.w3.org/2000/svg"
 width="2988.000000pt" height="1128.000000pt" viewBox="0 0 2988.000000 1128.000000"
 preserveAspectRatio="xMidYMid meet">

<g transform="translate(0.000000,1128.000000) scale(0.100000,-0.100000)"
fill="#000000" stroke="none">
<path d="M7060 8619 c-388 -50 -625 -153 -830 -359 -212 -212 -340 -508 -395
-910 -26 -187 -36 -463 -25 -652 31 -516 139 -886 349 -1195 234 -346 536
-533 991 -615 109 -19 547 -16 713 6 169 22 341 58 452 94 l90 30 3 106 c2 81
0 108 -11 111 -7 3 -44 -6 -82 -20 -217 -82 -509 -119 -752 -96 -561 54 -916
339 -1093 880 -148 451 -170 1181 -49 1661 58 233 143 396 273 526 156 155
317 221 566 231 276 10 497 -58 681 -210 123 -102 243 -289 298 -467 40 -129
33 -120 100 -120 33 0 62 3 64 8 5 6 -4 174 -34 655 l-12 197 -26 6 c-14 4
-57 14 -96 24 -298 77 -640 121 -935 119 -96 -1 -204 -5 -240 -10z"/>
<path d="M10365 8619 c-365 -43 -611 -148 -782 -334 -161 -174 -231 -414 -204
-693 23 -225 87 -367 231 -512 147 -148 298 -242 780 -485 448 -227 643 -389
728 -603 23 -59 26 -81 27 -187 0 -139 -20 -217 -82 -325 -51 -87 -162 -197
-250 -248 -159 -93 -372 -134 -575 -113 -269 29 -454 112 -600 270 -84 91
-133 186 -174 339 -2 8 -25 12 -70 12 l-66 0 6 -107 c3 -60 11 -205 16 -323 6
-118 13 -243 16 -276 l5 -62 37 -5 c20 -3 111 -17 202 -31 310 -48 444 -59
690 -60 238 0 330 9 507 50 363 84 639 283 764 549 69 147 83 215 83 415 1
191 -8 247 -56 372 -110 288 -364 491 -1013 813 -410 203 -503 262 -628 395
-111 117 -154 234 -144 390 18 276 226 487 541 547 164 31 434 0 581 -67 193
-89 329 -240 392 -434 37 -116 33 -111 97 -114 45 -2 57 0 63 14 3 9 1 112 -5
228 -7 116 -15 272 -18 348 -4 75 -10 141 -14 148 -8 13 -35 19 -190 45 -52 8
-108 18 -125 21 -175 29 -606 43 -770 23z"/>
<path d="M2347 8573 c-4 -3 -7 -28 -7 -55 l0 -48 73 0 c168 -1 294 -57 344
-153 50 -97 47 -31 54 -1252 7 -1223 7 -1243 60 -1455 52 -207 156 -380 295
-491 135 -108 347 -189 580 -224 240 -35 600 -29 825 15 427 82 663 296 750
678 43 190 42 164 49 1397 7 1293 4 1236 66 1342 53 92 165 138 354 146 l55 2
3 46 c2 35 -1 48 -12 52 -9 4 -291 5 -628 4 l-613 -2 -3 -51 -3 -51 98 -6
c202 -11 302 -75 349 -224 18 -55 19 -113 19 -1223 l0 -1165 -23 -110 c-49
-232 -109 -355 -228 -464 -103 -94 -222 -147 -409 -182 -92 -17 -392 -17 -465
0 -293 69 -464 225 -554 507 -74 233 -76 258 -76 1470 0 1017 1 1064 19 1137
45 176 138 241 360 256 l96 6 3 38 c6 72 55 67 -723 67 -386 0 -705 -3 -708
-7z"/>
<path d="M17058 8575 c-5 -5 -8 -30 -8 -57 l0 -48 73 0 c39 0 100 -7 135 -15
167 -39 236 -127 261 -330 15 -125 15 -2628 0 -2746 -29 -223 -102 -306 -300
-338 -36 -6 -89 -11 -117 -11 l-52 0 0 -50 c0 -33 4 -50 13 -50 6 0 353 0 770
0 597 0 786 3 895 15 185 20 276 36 387 67 396 111 665 310 847 625 26 46 48
86 48 88 0 2 12 30 26 61 108 237 164 563 164 964 0 794 -224 1314 -682 1581
-161 94 -334 154 -598 206 -146 28 -308 35 -1065 40 -434 3 -793 2 -797 -2z
m1577 -231 c291 -40 498 -137 666 -311 193 -198 298 -468 344 -883 20 -180 20
-620 0 -797 -80 -717 -385 -1088 -980 -1192 -111 -20 -345 -30 -430 -20 -141
18 -189 64 -214 210 -17 100 -15 2730 2 2820 27 135 74 180 202 189 101 8 295
1 410 -16z"/>
<path d="M20854 8204 c-183 -67 -234 -315 -95 -454 146 -146 400 -80 457 119
38 128 -20 262 -140 323 -53 27 -165 34 -222 12z"/>
<path d="M25422 7585 c-112 -51 -206 -169 -298 -373 -23 -52 -46 -98 -51 -103
-6 -6 -38 4 -84 25 -148 67 -323 92 -545 76 -233 -16 -383 -60 -520 -152 -84
-56 -149 -131 -193 -223 -64 -132 -76 -197 -75 -395 0 -136 4 -180 22 -250 34
-130 84 -220 173 -314 l77 -82 -54 -69 c-68 -87 -129 -210 -145 -294 -26 -135
34 -284 147 -364 24 -17 44 -36 44 -41 0 -6 -19 -20 -43 -31 -54 -26 -161
-107 -204 -154 -46 -51 -90 -138 -108 -212 -58 -247 72 -485 330 -604 204 -95
339 -120 640 -120 255 1 359 15 540 76 171 58 294 129 409 238 156 149 236
334 236 544 -1 217 -88 368 -263 456 -160 80 -174 82 -767 91 -558 8 -567 9
-645 60 -49 31 -74 79 -75 142 0 56 32 147 66 187 l24 29 56 -19 c189 -67 580
-63 794 7 112 37 194 88 281 174 135 135 185 257 195 485 9 174 -14 305 -73
433 -20 44 -108 178 -123 187 -16 10 -11 47 14 102 36 77 64 110 108 128 39
15 41 15 118 -20 101 -45 179 -48 258 -9 57 29 83 59 100 120 32 113 -12 225
-109 274 -57 30 -186 27 -257 -5z m-745 -554 c219 -80 323 -308 311 -681 -11
-304 -99 -453 -307 -516 -61 -18 -232 -18 -293 1 -145 44 -251 166 -300 345
-48 178 -48 444 0 595 46 146 168 252 316 276 74 11 215 1 273 -20z m435
-2076 c94 -19 156 -49 205 -97 80 -78 108 -194 78 -317 -63 -259 -336 -439
-728 -482 -181 -20 -352 6 -492 75 -216 107 -335 314 -303 526 6 36 21 85 33
110 26 51 93 124 156 169 l42 31 471 0 c369 0 486 -3 538 -15z"/>
<path d="M12700 7214 c-221 -19 -433 -89 -569 -189 -105 -77 -153 -160 -158
-270 -3 -58 1 -78 20 -115 60 -116 228 -152 340 -74 58 42 88 106 94 208 6
111 26 167 72 209 58 52 125 71 261 71 113 1 131 -2 218 -41 51 -22 111 -88
143 -156 46 -100 59 -188 66 -443 6 -221 5 -232 -13 -242 -10 -5 -66 -13 -124
-17 -365 -23 -596 -73 -800 -173 -78 -38 -110 -61 -176 -127 -127 -126 -168
-229 -168 -420 -1 -100 3 -131 23 -188 59 -173 196 -296 384 -347 72 -20 99
-22 217 -17 157 6 243 27 360 88 82 42 198 141 244 208 40 58 52 53 60 -25 12
-119 64 -196 165 -242 49 -23 72 -27 180 -30 84 -3 160 1 238 13 123 19 137
28 131 83 l-3 27 -110 0 c-128 0 -165 15 -202 81 l-23 39 0 640 c0 619 -8 865
-31 970 -58 270 -231 422 -529 463 -90 13 -248 21 -310 16z m484 -1414 c-1
-159 -5 -220 -18 -270 -74 -281 -289 -466 -521 -448 -192 16 -330 220 -311
460 13 183 138 315 369 393 122 41 321 74 427 71 l55 -1 -1 -205z"/>
<path d="M15460 7210 c-269 -37 -482 -216 -637 -535 -25 -52 -50 -95 -55 -95
-4 0 -8 142 -8 315 0 265 -2 315 -14 315 -13 0 -179 -25 -436 -66 -52 -8 -122
-19 -155 -24 -150 -23 -135 -16 -135 -60 l0 -39 48 -6 c170 -20 245 -64 294
-170 l23 -50 0 -770 c0 -717 -1 -774 -18 -822 -43 -122 -127 -183 -266 -193
l-76 -5 -3 -37 c-2 -29 0 -38 12 -38 391 -2 1090 1 1097 5 5 4 9 19 9 35 0 33
-6 36 -106 43 -110 8 -190 60 -231 149 -34 72 -43 182 -43 501 0 294 12 467
40 570 5 20 14 52 19 70 12 44 66 177 97 240 115 226 295 405 441 436 108 23
240 -12 296 -78 77 -92 87 -205 87 -966 0 -636 -3 -689 -47 -783 -42 -90 -140
-142 -265 -142 -32 0 -59 -3 -59 -7 -6 -35 -6 -60 1 -68 6 -7 199 -8 561 -5
l554 5 2 27 c3 37 -12 45 -92 50 -133 7 -222 72 -262 192 -15 46 -18 133 -24
811 -4 467 -10 779 -17 810 -46 219 -143 327 -334 369 -81 18 -228 26 -298 16z"/>
<path d="M22420 7213 c-500 -34 -779 -288 -859 -778 -44 -268 -25 -613 46
-840 122 -390 401 -622 835 -696 106 -18 151 -20 333 -16 217 4 324 18 445 57
35 11 68 26 72 33 10 16 10 124 0 131 -4 2 -33 -3 -63 -13 -210 -70 -524 -40
-724 70 -190 103 -340 278 -440 514 -9 22 -21 49 -26 60 -39 91 -87 322 -96
462 l-6 103 709 2 709 3 3 75 c6 138 -31 316 -88 430 -117 231 -341 370 -650
400 -93 9 -110 10 -200 3z m188 -175 c151 -60 223 -138 277 -296 24 -71 51
-243 41 -268 -5 -12 -72 -14 -493 -12 l-488 3 -3 24 c-5 35 26 156 58 227 39
86 100 174 157 224 53 48 157 100 218 111 51 10 198 1 233 -13z"/>
<path d="M26625 7210 c-336 -34 -607 -215 -749 -497 -106 -213 -141 -377 -140
-668 0 -228 14 -334 66 -490 147 -438 479 -675 946 -675 458 0 785 226 936
649 57 158 76 287 76 516 0 233 -21 374 -80 532 -26 71 -86 188 -123 243 -40
59 -150 173 -207 215 -183 134 -464 202 -725 175z m293 -182 c241 -89 377
-363 413 -834 11 -154 2 -356 -22 -499 -16 -91 -50 -229 -60 -240 -5 -5 -9
-15 -9 -23 0 -28 -73 -161 -121 -220 -81 -101 -169 -151 -302 -172 -79 -13
-150 -6 -237 23 -113 38 -232 157 -297 297 -99 215 -145 579 -113 901 47 473
214 743 490 790 70 12 194 1 258 -23z"/>
<path d="M20980 7189 c-63 -10 -173 -28 -245 -39 -164 -26 -240 -38 -287 -45
-36 -6 -38 -8 -38 -45 l0 -39 58 -6 c179 -21 272 -91 301 -225 9 -40 11 -253
9 -800 -3 -699 -4 -748 -22 -797 -40 -111 -130 -173 -265 -183 l-76 -5 0 -40
c0 -26 4 -40 13 -39 6 1 258 2 558 3 l545 1 -3 38 -3 37 -75 6 c-148 13 -206
48 -259 159 l-26 55 -5 990 -5 990 -30 2 c-16 1 -82 -7 -145 -18z"/>
</g>
</svg>
