<svg id="svg" version="1.1" xmlns="http://www.w3.org/2000/svg" xmlns:xlink="http://www.w3.org/1999/xlink" width="400" height="547.4666666666667" viewBox="0, 0, 400,547.4666666666667"><g id="svgg"><path id="path0" d="M153.589 206.165 C 149.918 207.196,147.188 210.131,146.493 213.796 C 146.162 215.545,146.179 294.491,146.512 296.307 C 148.049 304.699,159.018 306.942,163.920 299.868 C 165.572 297.485,165.531 297.914,165.658 281.556 L 165.773 266.821 166.414 265.981 C 167.700 264.295,168.016 264.233,175.308 264.233 L 181.781 264.233 182.833 264.929 C 184.912 266.307,184.826 265.600,184.826 281.262 C 184.826 297.781,184.934 298.568,187.563 301.197 C 193.364 306.998,202.805 303.784,203.982 295.608 C 204.287 293.493,204.293 216.868,203.989 214.489 C 202.943 206.309,193.183 202.979,187.588 208.895 C 184.897 211.741,184.826 212.222,184.826 227.707 L 184.826 240.405 184.313 241.422 C 183.994 242.052,183.409 242.699,182.772 243.124 L 181.746 243.811 175.774 243.881 C 169.189 243.959,168.397 243.855,167.130 242.743 C 165.714 241.499,165.783 242.221,165.652 227.382 C 165.517 212.127,165.561 212.551,163.850 210.064 C 161.636 206.847,157.185 205.155,153.589 206.165 M282.259 205.980 C 280.808 206.217,279.217 207.895,278.834 209.592 C 278.537 210.912,278.952 211.979,281.647 216.809 C 283.071 219.361,285.678 224.067,287.441 227.268 C 289.204 230.468,290.905 233.548,291.220 234.113 C 291.535 234.678,293.370 237.963,295.298 241.415 L 298.802 247.690 298.916 272.333 L 299.030 296.977 299.746 298.488 C 303.568 306.553,315.014 305.772,317.661 297.265 C 318.061 295.982,318.083 294.620,318.083 271.974 L 318.083 248.040 321.765 241.362 C 323.790 237.689,325.702 234.221,326.015 233.657 C 326.327 233.092,328.534 229.087,330.918 224.758 C 333.302 220.428,335.871 215.807,336.627 214.489 C 338.838 210.632,338.648 208.260,335.996 206.617 L 334.890 205.933 328.940 205.933 C 320.937 205.933,321.876 205.349,317.732 212.892 C 316.387 215.339,314.461 218.831,313.452 220.650 C 312.443 222.470,311.187 224.780,310.661 225.784 C 308.889 229.164,308.091 228.925,305.535 224.250 C 296.053 206.903,295.851 206.586,293.928 206.052 C 293.147 205.835,283.511 205.776,282.259 205.980 M221.112 226.080 C 220.436 227.535,220.607 235.120,221.364 237.292 C 221.716 238.301,222.086 238.179,223.992 236.423 C 224.929 235.559,226.448 234.250,227.367 233.513 C 230.193 231.248,230.264 231.484,225.784 228.302 C 221.690 225.394,221.478 225.293,221.112 226.080 M274.814 227.096 C 273.699 227.881,272.202 228.921,271.488 229.408 C 268.685 231.319,268.684 231.304,271.877 233.941 C 273.006 234.873,274.275 235.961,274.696 236.358 C 277.624 239.116,278.018 238.484,278.019 231.033 C 278.020 225.016,277.930 224.905,274.814 227.096 M389.732 227.726 C 386.559 228.106,384.617 228.960,381.324 231.420 C 377.934 233.954,377.267 234.068,373.221 232.813 C 362.496 229.486,353.199 231.143,344.843 237.873 C 325.100 253.773,327.734 288.766,349.572 300.693 C 377.575 315.986,406.285 280.770,391.108 249.743 C 388.248 243.896,388.044 238.677,390.512 234.466 C 392.046 231.849,396.206 229.377,399.201 229.304 C 399.786 229.290,399.703 229.222,398.631 228.838 C 395.907 227.861,392.332 227.414,389.732 227.726 M245.864 231.298 C 221.061 234.311,208.857 268.652,224.720 290.795 C 243.832 317.472,281.276 302.061,281.219 267.541 C 281.183 245.560,265.003 228.974,245.864 231.298 M253.868 249.953 C 264.900 253.451,269.158 269.159,261.851 279.399 C 252.365 292.693,233.645 285.070,233.570 267.884 C 233.516 255.309,243.354 246.618,253.868 249.953 M367.028 249.716 C 380.018 253.308,383.740 272.435,373.325 282.077 C 365.729 289.110,354.310 286.631,349.461 276.897 C 342.523 262.970,353.506 245.976,367.028 249.716 M190.302 324.043 C 185.943 325.351,186.342 329.669,190.987 331.450 C 192.433 332.004,193.041 332.613,193.041 333.509 C 193.041 335.232,191.020 335.693,188.687 334.503 C 187.678 333.988,187.564 334.074,187.564 335.343 C 187.564 337.574,192.433 338.024,194.475 335.982 C 196.618 333.839,195.684 331.198,192.211 329.575 C 188.311 327.752,188.985 325.026,193.040 326.220 C 194.874 326.760,194.866 326.763,194.866 325.472 C 194.866 324.176,192.415 323.409,190.302 324.043 M336.491 324.102 C 331.033 325.631,330.244 334.089,335.326 336.591 C 339.724 338.755,343.991 335.967,344.276 330.742 C 344.532 326.050,340.824 322.888,336.491 324.102 M203.996 327.153 C 203.328 328.879,202.226 331.715,201.548 333.456 C 200.130 337.092,200.135 337.304,201.625 337.206 L 202.683 337.136 203.310 335.425 L 203.936 333.714 206.293 333.714 L 208.650 333.714 209.231 335.202 C 210.021 337.224,210.045 337.250,211.175 337.250 C 212.538 337.250,212.535 337.154,211.054 333.379 C 210.338 331.555,209.217 328.702,208.563 327.039 L 207.374 324.016 206.292 324.016 L 205.211 324.016 203.996 327.153 M216.315 324.289 C 216.315 324.567,217.685 328.276,220.111 334.569 L 221.145 337.250 222.225 337.250 L 223.305 337.250 225.742 330.962 C 228.598 323.596,228.517 324.016,227.070 324.016 L 225.959 324.016 225.156 326.127 C 224.715 327.288,223.905 329.442,223.358 330.915 C 222.810 332.388,222.309 333.594,222.245 333.596 C 222.181 333.598,221.353 331.469,220.406 328.865 L 218.683 324.130 217.499 324.061 C 216.643 324.011,216.315 324.075,216.315 324.289 M233.710 330.570 L 233.771 337.136 236.820 337.200 C 240.113 337.269,240.454 337.171,240.408 336.166 C 240.358 335.064,240.166 334.969,237.979 334.969 L 235.938 334.969 235.938 333.257 L 235.938 331.546 238.102 331.546 C 240.200 331.546,240.269 331.529,240.404 330.994 C 240.725 329.713,240.568 329.612,238.161 329.541 L 235.938 329.476 235.938 327.781 L 235.938 326.086 238.163 326.021 L 240.388 325.956 240.388 325.043 L 240.388 324.130 237.019 324.067 L 233.650 324.004 233.710 330.570 M254.421 325.043 L 254.421 326.070 256.018 326.070 L 257.616 326.070 257.616 331.542 L 257.616 337.014 258.163 337.151 C 258.464 337.226,258.951 337.254,259.247 337.212 L 259.783 337.136 259.844 331.603 L 259.905 326.070 261.499 326.070 L 263.092 326.070 263.092 325.043 L 263.092 324.016 258.756 324.016 L 254.421 324.016 254.421 325.043 M269.431 330.179 C 269.356 337.371,269.344 337.303,270.676 337.207 L 271.649 337.136 271.713 334.341 L 271.777 331.546 274.957 331.546 L 278.138 331.546 278.202 334.341 L 278.266 337.136 279.293 337.136 L 280.319 337.136 280.380 330.564 L 280.441 323.991 279.353 324.060 L 278.266 324.130 278.202 326.811 L 278.137 329.492 274.957 329.492 L 271.777 329.492 271.713 326.811 L 271.649 324.130 270.572 324.061 L 269.495 323.992 269.431 330.179 M287.841 324.298 C 287.779 324.460,287.755 327.415,287.789 330.865 L 287.849 337.136 291.158 337.136 L 294.467 337.136 294.467 336.110 L 294.467 335.083 292.299 334.969 L 290.131 334.855 290.060 333.209 L 289.988 331.563 292.227 331.497 L 294.467 331.432 294.467 330.519 L 294.467 329.606 292.299 329.492 L 290.131 329.378 290.131 327.781 L 290.131 326.184 292.299 326.070 L 294.467 325.956 294.467 325.043 L 294.467 324.130 291.210 324.067 C 288.713 324.018,287.928 324.072,287.841 324.298 M308.188 324.195 C 308.119 324.306,309.008 327.263,310.164 330.767 L 312.265 337.136 313.335 337.205 L 314.405 337.274 315.788 332.957 C 316.548 330.583,317.171 328.524,317.171 328.382 C 317.171 327.427,317.753 328.674,318.996 332.288 C 320.816 337.583,320.626 337.250,321.841 337.250 C 322.685 337.250,322.868 337.169,322.995 336.737 C 323.138 336.249,325.988 327.243,326.636 325.232 C 327.007 324.078,326.955 324.016,325.632 324.018 L 324.586 324.019 323.222 328.581 C 322.472 331.090,321.803 333.143,321.736 333.143 C 321.605 333.143,321.524 332.920,319.666 327.485 L 318.473 323.994 317.445 324.062 L 316.416 324.130 314.899 328.808 L 313.383 333.485 312.713 331.318 C 312.345 330.125,311.678 328.021,311.231 326.640 L 310.417 324.130 309.365 324.061 C 308.786 324.024,308.257 324.084,308.188 324.195 M350.941 330.515 L 350.941 337.014 351.488 337.151 C 353.026 337.537,353.103 337.410,353.173 334.341 C 353.254 330.810,353.333 330.810,355.529 334.343 L 357.265 337.136 358.356 337.207 C 360.075 337.319,360.054 337.108,358.048 334.036 L 356.214 331.228 357.032 330.735 C 359.229 329.409,359.566 326.258,357.653 324.947 C 356.628 324.245,355.548 324.028,353.052 324.021 L 350.941 324.016 350.941 330.515 M365.697 324.168 C 365.368 324.497,365.526 336.722,365.862 337.001 C 366.075 337.178,367.144 337.243,369.113 337.200 L 372.048 337.136 372.048 336.110 L 372.048 335.083 370.051 335.017 L 368.055 334.951 368.055 329.483 L 368.055 324.016 366.952 324.016 C 366.345 324.016,365.781 324.084,365.697 324.168 M378.436 324.278 C 378.370 324.451,378.343 327.415,378.376 330.865 L 378.437 337.136 381.061 337.104 C 383.160 337.078,383.959 336.969,385.054 336.561 C 390.642 334.480,391.028 326.527,385.637 324.563 C 384.207 324.041,378.612 323.820,378.436 324.278 M339.327 326.102 C 342.961 327.322,342.668 334.402,338.955 335.099 C 336.309 335.595,334.472 333.772,334.458 330.633 C 334.443 327.282,336.670 325.209,339.327 326.102 M355.598 326.290 C 357.475 327.003,356.167 329.492,353.915 329.492 L 353.223 329.492 353.223 327.781 L 353.223 326.070 354.121 326.070 C 354.615 326.070,355.279 326.169,355.598 326.290 M384.077 326.308 C 389.125 327.710,387.415 334.945,382.031 334.964 L 380.605 334.969 380.605 330.519 L 380.605 326.070 381.917 326.071 C 382.638 326.072,383.611 326.178,384.077 326.308 M207.044 329.321 C 207.817 331.443,207.865 331.318,206.275 331.318 C 204.696 331.318,204.721 331.386,205.503 329.277 C 206.242 327.281,206.302 327.283,207.044 329.321 " stroke="none" fill="#54a4db" fill-rule="evenodd"></path><path id="path1" d="M0.000 273.816 L 0.000 547.633 200.000 547.633 L 400.000 547.633 400.000 388.491 L 400.000 229.350 399.144 229.480 C 392.341 230.514,388.760 235.110,389.132 242.327 C 389.280 245.182,389.509 246.120,390.528 248.032 C 403.843 273.015,388.664 304.392,363.263 304.392 C 333.626 304.392,319.946 262.195,342.365 239.931 C 350.946 231.410,361.657 228.843,373.075 232.571 C 376.388 233.654,377.892 233.602,379.617 232.348 C 385.120 228.348,386.542 227.725,390.574 227.550 C 393.533 227.422,396.253 227.759,398.460 228.528 L 400.000 229.065 400.000 114.533 L 400.000 0.000 200.000 0.000 L 0.000 0.000 0.000 273.816 M125.499 200.674 C 131.156 203.078,133.598 209.723,130.867 215.288 C 126.320 224.556,112.771 222.614,110.766 212.406 C 109.148 204.172,117.702 197.361,125.499 200.674 M159.550 206.374 C 161.991 207.361,164.083 209.411,165.035 211.751 C 165.538 212.990,165.546 213.183,165.659 226.697 C 165.788 242.217,165.701 241.520,167.675 242.894 L 168.665 243.582 175.091 243.582 C 185.452 243.582,184.836 244.703,184.819 225.898 C 184.808 213.249,184.833 212.852,185.736 211.060 C 189.447 203.697,200.400 204.061,203.546 211.651 L 204.107 213.006 204.167 254.406 C 204.232 299.543,204.293 297.244,202.971 299.499 C 198.791 306.631,187.982 305.625,185.249 297.849 C 184.830 296.658,184.807 295.885,184.820 283.413 C 184.842 263.219,185.415 264.347,175.128 264.347 L 168.967 264.347 167.906 264.971 C 167.141 265.420,166.694 265.900,166.308 266.682 L 165.773 267.770 165.659 282.492 L 165.545 297.215 164.780 298.769 C 161.115 306.210,150.638 306.199,147.110 298.750 L 146.378 297.205 146.264 256.475 C 146.201 234.073,146.210 215.066,146.284 214.236 C 146.835 208.060,153.680 204.003,159.550 206.374 M294.722 206.139 C 296.231 206.842,296.548 207.352,304.567 222.019 C 305.013 222.835,305.772 224.205,306.254 225.063 C 306.736 225.922,307.131 226.684,307.131 226.757 C 307.131 227.143,307.968 227.724,308.524 227.724 C 309.321 227.724,309.398 227.617,311.963 222.932 C 313.097 220.861,314.820 217.730,315.793 215.973 C 316.766 214.216,317.951 212.059,318.427 211.181 C 321.576 205.370,320.934 205.705,328.922 205.705 C 336.767 205.705,338.395 206.537,338.390 210.546 C 338.388 211.652,338.333 211.800,337.090 214.033 C 336.705 214.723,335.631 216.674,334.702 218.369 C 332.943 221.578,324.817 236.254,324.468 236.851 C 324.358 237.039,323.116 239.298,321.707 241.871 C 320.299 244.444,318.958 246.886,318.729 247.297 C 318.332 248.009,318.311 249.205,318.311 271.641 C 318.311 292.191,318.266 295.435,317.956 296.769 C 315.831 305.931,303.594 307.094,299.533 298.519 L 298.802 296.977 298.688 272.333 L 298.574 247.690 297.874 246.549 C 297.192 245.437,296.755 244.655,294.177 239.932 C 293.492 238.677,292.647 237.136,292.300 236.509 C 291.952 235.881,290.358 233.006,288.757 230.120 C 287.157 227.233,284.694 222.767,283.285 220.194 C 281.875 217.621,280.483 215.106,280.191 214.604 C 278.051 210.923,278.020 208.967,280.072 206.979 C 281.368 205.722,282.013 205.611,288.078 205.603 C 293.377 205.595,293.592 205.612,294.722 206.139 M223.517 226.433 C 224.262 226.978,225.924 228.164,227.210 229.068 C 230.323 231.254,230.338 231.614,227.406 233.763 C 226.918 234.121,225.677 235.206,224.648 236.175 C 222.379 238.313,221.950 238.575,221.486 238.111 C 220.895 237.520,220.543 234.655,220.559 230.576 C 220.582 225.006,220.920 224.534,223.517 226.433 M277.959 226.298 C 278.369 227.469,278.367 234.182,277.957 236.212 C 277.400 238.966,277.084 238.992,274.501 236.495 C 273.685 235.706,272.206 234.411,271.213 233.617 C 268.280 231.271,268.206 231.460,273.511 227.704 C 277.081 225.175,277.518 225.037,277.959 226.298 M37.485 231.350 C 41.650 232.501,45.323 234.697,48.626 238.011 C 51.883 241.279,52.610 241.271,55.874 237.927 C 68.986 224.495,90.988 230.365,95.887 248.602 C 96.357 250.350,96.383 251.036,96.506 264.689 L 96.634 278.950 97.272 280.249 C 99.962 285.726,107.433 286.031,110.433 280.787 C 111.506 278.912,111.581 277.455,111.566 258.871 C 111.551 240.122,111.507 240.652,113.285 238.229 C 117.806 232.070,126.870 232.924,130.155 239.817 L 130.861 241.301 130.923 260.914 C 130.977 277.957,130.938 280.778,130.627 282.441 C 127.057 301.495,105.256 310.805,89.113 300.170 C 83.389 296.399,79.459 290.787,77.659 283.817 L 77.050 281.460 76.917 268.682 L 76.783 255.904 76.239 254.702 C 73.568 248.791,64.956 249.116,62.502 255.221 L 61.953 256.589 61.838 277.011 L 61.723 297.433 61.079 298.745 C 57.309 306.421,46.289 306.107,43.069 298.232 L 42.556 296.977 42.442 276.554 C 42.328 256.151,42.327 256.131,41.829 255.052 C 38.522 247.893,28.598 249.326,27.595 257.107 C 27.486 257.951,27.392 267.114,27.387 277.467 C 27.378 292.939,27.320 296.480,27.057 297.346 C 24.300 306.429,11.809 306.733,8.422 297.799 C 7.729 295.970,7.639 252.927,8.321 249.629 C 9.080 245.964,10.840 242.033,12.765 239.703 C 18.885 232.297,28.792 228.949,37.485 231.350 M256.281 231.681 C 279.269 237.602,289.249 268.743,274.988 290.052 C 259.027 313.900,225.941 306.807,218.609 277.965 C 211.857 251.405,232.828 225.641,256.281 231.681 M247.119 249.634 C 233.950 251.933,229.065 270.574,238.860 281.154 C 246.780 289.709,260.034 286.237,264.122 274.537 C 268.685 261.474,259.165 247.531,247.119 249.634 M360.981 249.608 C 348.130 251.825,342.981 270.382,352.341 280.749 C 360.288 289.552,373.205 286.697,377.780 275.127 C 382.895 262.194,373.220 247.497,360.981 249.608 M50.070 323.903 C 51.826 324.275,52.017 324.445,52.022 325.642 C 52.026 326.773,51.620 327.074,50.631 326.670 C 46.882 325.139,44.003 327.209,44.324 331.205 C 44.577 334.362,47.381 335.875,50.422 334.495 C 51.388 334.057,51.459 334.054,51.734 334.430 C 53.270 336.530,49.450 338.248,45.711 337.137 C 40.732 335.659,39.795 327.914,44.225 324.844 C 45.943 323.653,47.618 323.383,50.070 323.903 M93.212 324.272 C 98.105 326.787,97.770 335.126,92.699 337.024 C 87.013 339.151,82.143 333.611,84.431 327.618 C 85.732 324.211,89.958 322.601,93.212 324.272 M171.479 323.912 C 173.077 324.328,173.105 324.362,172.998 325.710 C 172.903 326.901,172.896 326.903,170.904 326.393 C 168.123 325.681,166.596 327.720,169.099 328.804 C 173.343 330.642,174.642 332.608,173.311 335.181 C 171.794 338.115,165.203 338.316,165.203 335.428 C 165.203 333.923,165.567 333.668,166.801 334.311 C 168.862 335.386,170.913 335.001,170.904 333.542 C 170.898 332.778,170.682 332.554,169.307 331.888 C 166.291 330.428,166.141 330.330,165.577 329.463 C 163.507 326.283,167.210 322.800,171.479 323.912 M194.181 324.105 C 194.916 324.338,194.986 324.439,195.052 325.359 C 195.153 326.772,194.950 326.880,193.053 326.415 C 189.481 325.540,188.525 327.764,191.869 329.170 C 194.914 330.451,195.649 331.272,195.654 333.394 C 195.660 336.046,194.111 337.355,190.987 337.337 C 188.043 337.320,187.336 336.930,187.336 335.321 C 187.336 333.770,187.466 333.697,188.968 334.396 C 190.949 335.318,192.522 335.041,192.908 333.702 C 193.123 332.955,192.563 332.450,190.283 331.335 C 187.643 330.045,187.222 329.529,187.222 327.593 C 187.222 324.389,190.266 322.863,194.181 324.105 M341.015 324.257 C 346.867 326.927,345.194 336.803,338.790 337.401 C 334.476 337.804,331.907 335.282,331.894 330.633 C 331.880 325.197,336.301 322.107,341.015 324.257 M22.476 325.043 L 22.476 326.184 21.077 326.251 L 19.679 326.318 19.528 327.257 C 19.446 327.773,19.386 330.105,19.396 332.438 C 19.406 334.771,19.409 336.813,19.404 336.977 C 19.398 337.193,19.039 337.255,18.083 337.205 L 16.771 337.136 16.710 331.717 L 16.649 326.298 15.417 326.298 C 13.642 326.298,13.463 326.184,13.463 325.056 C 13.463 323.725,13.284 323.771,18.126 323.840 L 22.476 323.902 22.476 325.043 M35.508 324.019 C 35.637 324.148,35.682 324.683,35.611 325.217 L 35.482 326.184 33.428 326.298 L 31.375 326.412 31.375 327.781 L 31.375 329.150 33.428 329.264 L 35.482 329.378 35.482 330.519 L 35.482 331.660 33.361 331.726 L 31.240 331.791 31.308 333.323 L 31.375 334.855 32.858 334.897 C 33.674 334.921,34.624 334.946,34.969 334.954 C 35.566 334.968,35.596 335.022,35.596 336.094 C 35.596 337.442,35.748 337.398,31.432 337.295 L 28.523 337.225 28.523 330.659 C 28.523 327.047,28.591 324.024,28.675 323.940 C 28.924 323.690,35.253 323.764,35.508 324.019 M60.646 326.590 L 60.711 329.278 63.613 329.214 L 66.515 329.150 66.629 326.526 L 66.743 323.902 67.998 323.902 L 69.253 323.902 69.313 330.550 L 69.374 337.198 68.638 337.306 C 66.855 337.567,66.750 337.415,66.678 334.439 L 66.614 331.774 63.655 331.774 L 60.696 331.774 60.696 334.151 C 60.696 337.247,60.694 337.250,59.213 337.250 C 57.684 337.250,57.797 337.764,57.746 330.558 C 57.698 323.557,57.654 323.731,59.421 323.834 L 60.582 323.902 60.646 326.590 M110.782 325.043 L 110.782 326.184 109.298 326.298 L 107.815 326.412 107.754 331.806 L 107.693 337.200 107.070 337.288 C 106.727 337.336,106.138 337.321,105.762 337.254 L 105.077 337.132 105.016 331.725 L 104.955 326.318 103.419 326.251 L 101.882 326.184 101.810 325.304 C 101.680 323.716,101.509 323.771,106.384 323.840 L 110.782 323.902 110.782 325.043 M123.480 326.070 C 128.145 337.834,127.944 337.130,126.697 337.329 C 125.077 337.588,124.399 336.919,123.781 334.455 L 123.624 333.828 121.398 333.828 L 119.171 333.828 118.555 335.518 L 117.938 337.208 116.791 337.286 C 114.712 337.428,114.661 337.822,117.751 329.835 C 120.257 323.356,120.013 323.748,121.473 323.834 L 122.621 323.902 123.480 326.070 M135.539 326.177 L 135.653 328.453 137.687 326.120 L 139.720 323.788 141.059 323.788 C 143.269 323.788,143.196 323.938,138.398 329.227 C 137.183 330.567,136.961 330.147,141.287 334.704 C 143.407 336.938,143.417 337.114,141.426 337.203 L 139.933 337.270 137.793 334.949 L 135.653 332.628 135.539 334.867 C 135.412 337.357,135.247 337.558,133.533 337.306 L 132.801 337.199 132.801 330.645 C 132.801 323.326,132.711 323.743,134.275 323.835 L 135.425 323.902 135.539 326.177 M150.827 328.621 C 150.932 332.965,150.979 333.391,151.422 333.983 C 152.522 335.454,154.842 335.466,155.923 334.005 C 156.344 333.437,156.387 332.994,156.431 328.835 C 156.486 323.659,156.452 323.788,157.772 323.788 C 159.306 323.788,159.321 323.844,159.228 329.084 C 159.106 335.955,157.983 337.601,153.451 337.549 C 149.080 337.498,148.101 335.919,148.094 328.903 C 148.088 323.486,148.013 323.744,149.563 323.835 L 150.713 323.902 150.827 328.621 M207.573 324.073 C 207.690 324.230,208.062 325.077,208.398 325.956 C 208.735 326.834,209.831 329.654,210.833 332.223 C 212.659 336.899,212.715 337.171,211.865 337.257 C 209.945 337.451,209.819 337.372,209.120 335.539 L 208.467 333.828 206.271 333.828 L 204.075 333.828 203.496 335.482 L 202.917 337.136 201.515 337.204 C 199.660 337.294,199.583 337.821,202.514 330.405 C 202.936 329.338,203.595 327.612,203.978 326.569 C 205.020 323.740,204.980 323.788,206.255 323.788 C 206.873 323.788,207.454 323.913,207.573 324.073 M218.763 324.073 C 218.885 324.230,219.690 326.284,220.553 328.637 C 222.336 333.501,222.245 333.392,222.923 331.489 C 223.837 328.924,225.485 324.595,225.702 324.187 C 225.985 323.655,228.127 323.610,228.327 324.132 C 228.399 324.321,227.352 327.355,226.000 330.873 L 223.541 337.270 222.194 337.203 L 220.846 337.136 219.935 334.740 C 216.661 326.133,216.055 324.427,216.171 324.125 C 216.335 323.699,218.439 323.656,218.763 324.073 M240.409 324.051 C 241.293 325.480,240.541 326.264,238.209 326.345 L 236.281 326.412 236.281 327.781 L 236.281 329.150 238.391 329.216 C 239.552 329.252,240.508 329.303,240.516 329.330 C 241.085 331.273,240.656 331.736,238.209 331.821 L 236.281 331.888 236.213 333.285 C 236.134 334.931,236.181 334.960,238.848 334.966 C 239.758 334.967,240.511 335.046,240.522 335.140 C 240.783 337.397,240.879 337.331,237.268 337.356 C 235.595 337.368,234.047 337.337,233.828 337.287 C 233.417 337.195,233.179 324.341,233.581 323.940 C 233.859 323.662,240.233 323.765,240.409 324.051 M263.206 325.043 L 263.206 326.184 261.666 326.251 L 260.125 326.319 260.125 331.796 L 260.125 337.273 258.813 337.205 L 257.501 337.136 257.440 331.727 L 257.379 326.318 255.843 326.251 L 254.307 326.184 254.235 325.304 C 254.104 323.716,253.933 323.771,258.808 323.840 L 263.206 323.902 263.206 325.043 M271.941 326.590 L 272.005 329.278 274.907 329.214 L 277.809 329.150 277.924 326.526 L 278.038 323.902 279.153 323.831 C 280.739 323.730,280.691 323.513,280.669 330.646 C 280.646 337.851,280.731 337.331,279.575 337.338 C 277.929 337.348,277.924 337.337,277.924 334.405 L 277.924 331.774 274.964 331.774 L 272.005 331.774 271.941 334.439 C 271.869 337.414,271.765 337.567,269.985 337.306 L 269.253 337.199 269.253 330.645 C 269.253 323.326,269.163 323.743,270.727 323.835 L 271.877 323.902 271.941 326.590 M294.568 324.114 C 294.716 324.294,294.806 324.833,294.767 325.312 L 294.695 326.184 292.527 326.298 L 290.359 326.412 290.284 327.075 C 290.242 327.440,290.272 328.082,290.351 328.502 L 290.494 329.264 292.513 329.264 C 294.695 329.264,294.809 329.331,294.809 330.606 C 294.809 331.606,294.442 331.774,292.253 331.774 L 290.245 331.774 290.245 333.115 C 290.245 334.836,290.420 334.967,292.598 334.881 C 294.623 334.802,294.874 334.962,294.767 336.265 L 294.695 337.136 291.158 337.136 L 287.621 337.136 287.560 330.750 C 287.527 327.238,287.550 324.235,287.610 324.076 C 287.780 323.633,294.198 323.668,294.568 324.114 M311.959 328.280 L 313.399 332.773 314.507 329.250 C 315.117 327.313,315.702 325.522,315.808 325.271 C 315.914 325.020,316.066 324.584,316.145 324.301 C 316.270 323.853,316.439 323.788,317.474 323.788 L 318.660 323.788 320.121 328.130 C 320.925 330.519,321.667 332.389,321.770 332.286 C 321.872 332.184,322.512 330.255,323.190 328.001 L 324.425 323.902 325.553 323.834 C 327.310 323.729,327.314 323.815,325.791 328.580 C 325.049 330.901,324.138 333.772,323.767 334.959 C 322.988 337.447,323.044 337.389,321.565 337.288 C 320.449 337.212,320.437 337.202,320.077 336.147 C 319.878 335.562,319.235 333.671,318.650 331.945 C 317.722 329.211,317.166 328.137,317.173 329.093 C 317.174 329.250,316.600 331.149,315.898 333.314 L 314.621 337.250 313.329 337.245 L 312.037 337.240 311.365 335.134 C 310.996 333.976,310.056 331.086,309.277 328.712 C 307.653 323.766,307.653 323.788,309.306 323.788 L 310.520 323.788 311.959 328.280 M356.023 324.045 C 359.415 324.726,360.320 328.678,357.526 330.607 C 356.415 331.375,356.365 331.167,358.398 334.195 C 360.342 337.089,360.350 337.259,358.544 337.301 C 357.082 337.334,357.262 337.493,355.277 334.396 L 353.565 331.726 353.451 334.422 C 353.324 337.427,353.274 337.500,351.471 337.289 L 350.713 337.200 350.713 330.646 C 350.713 327.041,350.782 324.024,350.865 323.940 C 351.111 323.694,354.634 323.766,356.023 324.045 M367.993 323.973 C 368.200 324.104,368.291 325.571,368.336 329.503 L 368.397 334.855 370.168 334.869 C 372.208 334.885,372.448 335.037,372.349 336.251 L 372.276 337.136 369.880 337.316 C 368.562 337.415,367.048 337.434,366.515 337.359 L 365.545 337.222 365.545 330.657 C 365.545 327.046,365.613 324.024,365.697 323.940 C 365.907 323.730,367.650 323.755,367.993 323.973 M384.348 324.031 C 387.812 324.672,389.573 326.775,389.589 330.291 C 389.609 334.922,386.927 337.136,381.298 337.136 L 378.209 337.136 378.148 330.750 C 378.115 327.238,378.137 324.235,378.198 324.076 C 378.338 323.710,382.449 323.680,384.348 324.031 M89.360 326.295 C 85.449 327.527,86.162 334.969,90.191 334.969 C 92.425 334.969,93.785 333.276,93.778 330.504 C 93.771 327.438,91.773 325.535,89.360 326.295 M337.034 326.389 C 333.180 327.781,334.149 334.971,338.190 334.968 C 340.534 334.966,341.472 333.697,341.472 330.529 C 341.472 326.976,339.779 325.397,337.034 326.389 M353.497 327.693 L 353.565 329.150 354.426 329.124 C 356.821 329.050,356.856 326.622,354.466 326.353 L 353.428 326.236 353.497 327.693 M380.885 330.546 L 380.947 334.855 382.088 334.788 C 388.268 334.427,388.656 326.740,382.514 326.346 L 380.823 326.237 380.885 330.546 M120.871 329.093 C 120.113 331.165,120.098 331.090,121.262 331.090 C 122.446 331.090,122.442 331.098,121.915 329.387 C 121.448 327.868,121.331 327.835,120.871 329.093 M205.658 329.606 L 205.175 331.090 206.309 331.090 C 206.933 331.090,207.400 331.013,207.347 330.918 C 207.294 330.824,207.068 330.157,206.846 329.435 C 206.335 327.781,206.247 327.794,205.658 329.606 " stroke="none" fill="#fbfbfb" fill-rule="evenodd"></path><path id="path2" d="M118.426 200.441 C 112.614 202.058,109.295 208.664,111.483 214.261 C 114.850 222.878,126.640 223.299,130.703 214.948 C 134.550 207.040,126.956 198.067,118.426 200.441 M26.675 231.364 C 18.251 233.142,11.432 239.531,9.018 247.910 C 8.048 251.279,7.952 254.024,8.035 275.984 L 8.113 296.292 8.627 297.661 C 11.514 305.348,21.506 306.379,25.853 299.438 C 27.334 297.073,27.255 298.333,27.318 276.213 C 27.384 253.439,27.263 254.886,29.278 252.678 C 33.006 248.591,39.599 249.598,41.951 254.614 L 42.556 255.904 42.670 276.326 C 42.782 296.401,42.792 296.768,43.262 297.911 C 46.744 306.380,58.118 306.079,61.303 297.433 C 61.696 296.366,61.730 294.979,61.837 275.984 L 61.951 255.676 62.512 254.535 C 65.459 248.547,73.831 248.750,76.644 254.877 C 76.961 255.568,77.029 257.399,77.148 268.454 C 77.309 283.460,77.405 284.163,80.013 289.411 C 89.625 308.750,116.918 309.416,127.457 290.569 C 130.745 284.690,130.861 283.697,130.861 261.266 L 130.861 242.442 130.344 240.958 C 127.283 232.187,115.539 232.172,112.184 240.934 C 111.700 242.199,111.694 242.412,111.647 260.125 C 111.597 279.342,111.604 279.141,110.886 280.628 C 108.193 286.202,99.811 286.112,97.045 280.480 L 96.406 279.179 96.292 264.575 C 96.229 256.543,96.100 249.851,96.005 249.705 C 95.910 249.558,95.575 248.553,95.262 247.471 C 90.301 230.352,68.642 225.294,55.942 238.289 C 52.762 241.543,51.641 241.597,48.834 238.630 C 42.874 232.329,34.741 229.663,26.675 231.364 M265.431 267.085 C 265.434 267.587,265.480 267.765,265.535 267.482 C 265.590 267.198,265.588 266.787,265.530 266.569 C 265.473 266.351,265.429 266.583,265.431 267.085 M13.790 324.563 C 13.491 325.756,13.690 325.947,15.360 326.070 L 16.912 326.184 16.956 331.546 L 16.999 336.908 18.054 336.976 C 19.398 337.064,19.338 337.332,19.338 331.174 L 19.337 326.184 20.862 326.116 L 22.387 326.048 22.317 325.089 L 22.248 324.130 18.089 324.068 L 13.930 324.006 13.790 324.563 M28.909 324.162 C 28.822 324.249,28.751 327.178,28.751 330.671 L 28.751 337.022 32.059 337.022 L 35.368 337.022 35.368 336.118 L 35.368 335.214 33.257 335.148 L 31.147 335.083 31.080 333.323 L 31.014 331.563 33.134 331.498 L 35.254 331.432 35.254 330.519 L 35.254 329.606 33.143 329.541 L 31.033 329.475 31.033 327.781 L 31.033 326.087 33.143 326.021 L 35.254 325.956 35.254 325.043 L 35.254 324.130 32.161 324.067 C 30.459 324.032,28.996 324.075,28.909 324.162 M45.294 324.561 C 40.541 326.811,40.395 334.516,45.066 336.587 C 47.922 337.854,52.076 337.011,51.654 335.250 C 51.451 334.401,51.514 334.418,50.192 334.857 C 46.424 336.109,43.853 334.151,44.076 330.199 C 44.251 327.114,46.242 325.470,49.118 326.035 C 51.780 326.559,52.057 326.454,51.706 325.052 C 51.424 323.930,47.295 323.613,45.294 324.561 M58.096 324.377 C 57.912 324.857,57.918 335.395,58.103 336.320 C 58.243 337.022,58.281 337.043,59.301 336.976 L 60.354 336.908 60.402 334.740 C 60.429 333.548,60.455 332.342,60.459 332.059 C 60.468 331.552,60.504 331.546,63.662 331.546 L 66.857 331.546 66.857 334.284 L 66.857 337.022 68.001 337.022 L 69.146 337.022 69.085 330.576 L 69.025 324.130 67.998 324.130 L 66.971 324.130 66.907 326.817 L 66.842 329.505 63.598 329.441 L 60.354 329.378 60.433 327.174 C 60.538 324.221,60.460 324.016,59.222 324.016 C 58.532 324.016,58.193 324.125,58.096 324.377 M88.020 324.342 C 82.507 326.309,83.022 335.854,88.705 337.034 C 93.131 337.953,96.327 335.231,96.349 330.524 C 96.371 325.658,92.462 322.756,88.020 324.342 M102.088 324.334 C 101.637 325.511,102.044 325.953,103.647 326.023 L 105.183 326.090 105.244 331.499 L 105.305 336.908 106.385 336.978 L 107.465 337.047 107.526 331.615 L 107.587 326.184 109.070 326.070 L 110.553 325.956 110.553 325.043 L 110.553 324.130 106.384 324.068 C 102.927 324.016,102.193 324.062,102.088 324.334 M118.896 327.713 C 118.106 329.758,117.010 332.596,116.460 334.018 C 115.232 337.192,115.225 337.022,116.581 337.022 L 117.702 337.022 118.366 335.280 L 119.029 333.537 121.294 333.582 C 123.914 333.634,123.711 333.514,124.421 335.425 L 124.973 336.908 126.149 336.977 C 127.667 337.066,127.795 337.558,123.579 327.096 L 122.383 324.130 121.358 324.062 L 120.332 323.994 118.896 327.713 M133.181 324.168 C 133.098 324.252,133.029 327.178,133.029 330.671 L 133.029 337.022 134.170 337.022 L 135.311 337.022 135.317 334.455 L 135.324 331.888 136.372 333.029 C 140.043 337.027,140.037 337.022,141.381 337.022 C 143.026 337.022,143.013 336.993,139.932 333.691 C 138.457 332.111,137.222 330.699,137.187 330.554 C 137.153 330.408,138.257 329.009,139.640 327.445 C 142.530 324.180,142.596 324.016,141.034 324.016 L 139.912 324.016 137.799 326.412 C 136.637 327.730,135.602 328.808,135.499 328.808 C 135.395 328.808,135.311 327.730,135.311 326.412 L 135.311 324.016 134.322 324.016 C 133.778 324.016,133.265 324.084,133.181 324.168 M148.480 324.157 C 148.205 324.432,148.291 333.225,148.577 334.079 C 149.848 337.875,155.652 338.578,158.013 335.222 L 158.699 334.246 158.769 329.131 L 158.838 324.016 157.799 324.016 L 156.760 324.016 156.755 328.408 C 156.748 334.204,156.213 335.425,153.679 335.425 C 151.164 335.425,150.737 334.511,150.599 328.819 L 150.485 324.130 149.564 324.062 C 149.057 324.025,148.570 324.068,148.480 324.157 M167.370 324.478 C 164.253 326.054,164.736 329.394,168.326 331.094 C 170.780 332.255,171.135 332.557,171.135 333.477 C 171.135 335.135,169.305 335.698,167.059 334.732 C 165.681 334.139,165.359 334.285,165.471 335.453 C 165.710 337.955,171.822 337.689,173.040 335.125 C 174.161 332.761,173.099 330.796,170.000 329.501 C 167.688 328.535,167.023 327.476,168.071 326.429 C 168.776 325.724,169.286 325.726,172.219 326.452 C 173.299 326.719,172.940 324.607,171.850 324.280 C 170.448 323.860,168.415 323.950,167.370 324.478 M269.352 330.291 C 269.352 333.554,269.384 334.857,269.423 333.187 C 269.462 331.516,269.462 328.847,269.423 327.254 C 269.384 325.661,269.352 327.028,269.352 330.291 M280.534 330.633 C 280.534 334.084,280.565 335.496,280.604 333.771 C 280.643 332.045,280.643 329.221,280.604 327.496 C 280.565 325.770,280.534 327.182,280.534 330.633 M350.813 330.633 C 350.813 334.084,350.845 335.496,350.884 333.771 C 350.922 332.045,350.922 329.221,350.884 327.496 C 350.845 325.770,350.813 327.182,350.813 330.633 M92.382 326.457 C 94.830 328.239,94.535 333.511,91.911 334.876 C 88.576 336.612,85.437 332.750,86.814 328.604 C 87.612 326.204,90.503 325.089,92.382 326.457 M290.092 327.781 C 290.093 328.659,290.134 328.991,290.184 328.517 C 290.233 328.044,290.232 327.325,290.182 326.920 C 290.131 326.515,290.091 326.902,290.092 327.781 M122.174 329.348 C 122.941 331.395,122.971 331.318,121.392 331.318 C 119.787 331.318,119.800 331.355,120.627 329.082 C 121.315 327.191,121.369 327.200,122.174 329.348 M290.088 332.801 C 290.089 333.554,290.132 333.834,290.182 333.424 C 290.233 333.014,290.232 332.398,290.180 332.055 C 290.128 331.712,290.087 332.048,290.088 332.801 M187.389 335.425 C 187.389 335.864,187.436 336.044,187.493 335.824 C 187.551 335.605,187.551 335.245,187.493 335.026 C 187.436 334.806,187.389 334.986,187.389 335.425 " stroke="none" fill="#74daf3" fill-rule="evenodd"></path><path id="path3" d="M120.650 200.051 C 121.058 200.102,121.726 200.102,122.133 200.051 C 122.541 200.000,122.208 199.959,121.392 199.959 C 120.576 199.959,120.242 200.000,120.650 200.051 M114.134 202.795 L 112.796 204.107 114.071 202.983 C 114.772 202.365,115.443 201.775,115.562 201.671 C 115.681 201.568,115.710 201.483,115.625 201.483 C 115.541 201.483,114.869 202.074,114.134 202.795 M127.829 202.381 C 128.294 202.776,128.988 203.477,129.369 203.940 C 129.751 204.403,130.063 204.703,130.063 204.606 C 130.063 204.330,127.967 202.159,127.448 201.899 C 127.192 201.770,127.363 201.987,127.829 202.381 M162.693 208.671 C 163.118 209.110,163.518 209.469,163.581 209.469 C 163.643 209.469,163.346 209.110,162.921 208.671 C 162.495 208.232,162.095 207.872,162.033 207.872 C 161.970 207.872,162.267 208.232,162.693 208.671 M131.735 210.496 C 131.736 211.375,131.777 211.706,131.827 211.233 C 131.876 210.759,131.875 210.041,131.825 209.636 C 131.774 209.230,131.734 209.618,131.735 210.496 M338.216 210.382 C 338.216 210.821,338.263 211.001,338.320 210.782 C 338.378 210.562,338.378 210.203,338.320 209.983 C 338.263 209.763,338.216 209.943,338.216 210.382 M126.901 219.286 C 125.548 220.175,125.405 220.380,126.596 219.724 C 127.137 219.426,127.688 219.051,127.822 218.890 C 128.157 218.486,128.043 218.535,126.901 219.286 M122.133 221.036 C 122.353 221.093,122.712 221.093,122.932 221.036 C 123.152 220.978,122.972 220.931,122.533 220.931 C 122.094 220.931,121.914 220.978,122.133 221.036 M220.497 231.033 C 220.498 231.911,220.539 232.242,220.589 231.769 C 220.638 231.296,220.637 230.577,220.587 230.172 C 220.536 229.767,220.496 230.154,220.497 231.033 M278.227 231.033 C 278.228 231.911,278.269 232.242,278.318 231.769 C 278.368 231.296,278.367 230.577,278.316 230.172 C 278.266 229.767,278.226 230.154,278.227 231.033 M30.519 230.857 C 31.052 230.905,31.925 230.905,32.459 230.857 C 32.992 230.809,32.556 230.770,31.489 230.770 C 30.422 230.770,29.986 230.809,30.519 230.857 M71.941 230.858 C 72.541 230.905,73.465 230.905,73.994 230.857 C 74.524 230.809,74.033 230.771,72.904 230.771 C 71.774 230.772,71.341 230.811,71.941 230.858 M248.439 231.087 C 249.102 231.133,250.129 231.133,250.721 231.086 C 251.313 231.039,250.770 231.001,249.515 231.002 C 248.260 231.002,247.776 231.041,248.439 231.087 M361.611 231.080 C 361.895 231.134,362.306 231.132,362.524 231.075 C 362.742 231.018,362.510 230.973,362.008 230.976 C 361.506 230.979,361.327 231.025,361.611 231.080 M364.119 231.079 C 364.401 231.134,364.863 231.134,365.145 231.079 C 365.428 231.025,365.197 230.981,364.632 230.981 C 364.067 230.981,363.836 231.025,364.119 231.079 M82.392 232.830 C 82.625 233.041,84.427 233.882,84.427 233.780 C 84.427 233.650,82.705 232.744,82.458 232.744 C 82.370 232.744,82.340 232.783,82.392 232.830 M120.881 234.274 C 121.165 234.329,121.576 234.327,121.794 234.270 C 122.012 234.213,121.780 234.168,121.278 234.170 C 120.776 234.173,120.597 234.220,120.881 234.274 M116.475 235.463 C 115.841 235.826,115.175 236.313,114.996 236.544 C 114.682 236.948,114.688 236.949,115.135 236.570 C 115.391 236.352,116.160 235.866,116.842 235.490 C 117.525 235.114,117.981 234.805,117.855 234.804 C 117.730 234.803,117.108 235.099,116.475 235.463 M272.904 234.869 C 272.904 234.908,273.237 235.242,273.645 235.610 L 274.387 236.281 273.717 235.539 C 273.092 234.848,272.904 234.693,272.904 234.869 M55.883 238.109 C 54.554 239.425,53.536 240.502,53.622 240.502 C 53.737 240.502,56.713 237.577,58.395 235.810 C 58.447 235.755,58.447 235.711,58.395 235.713 C 58.343 235.714,57.212 236.793,55.883 238.109 M14.825 237.707 L 13.349 239.247 14.889 237.770 C 16.319 236.399,16.533 236.167,16.365 236.167 C 16.330 236.167,15.637 236.860,14.825 237.707 M48.019 237.764 C 49.937 239.877,50.427 240.340,49.347 239.019 C 48.834 238.391,48.023 237.519,47.543 237.079 C 47.064 236.640,47.278 236.948,48.019 237.764 M89.447 237.650 C 89.872 238.089,90.272 238.448,90.335 238.448 C 90.398 238.448,90.101 238.089,89.675 237.650 C 89.249 237.210,88.849 236.851,88.787 236.851 C 88.724 236.851,89.021 237.210,89.447 237.650 M113.766 237.714 L 113.328 238.334 113.937 237.781 C 114.577 237.200,114.656 237.075,114.375 237.086 C 114.281 237.090,114.007 237.373,113.766 237.714 M128.801 238.106 C 129.878 239.542,130.018 239.670,129.471 238.720 C 129.232 238.305,128.791 237.740,128.491 237.465 C 128.169 237.171,128.297 237.434,128.801 238.106 M228.408 239.932 C 227.854 240.496,227.452 240.958,227.515 240.958 C 227.578 240.958,228.082 240.496,228.637 239.932 C 229.191 239.367,229.593 238.905,229.530 238.905 C 229.468 238.905,228.963 239.367,228.408 239.932 M342.270 239.932 C 341.716 240.496,341.314 240.958,341.377 240.958 C 341.439 240.958,341.944 240.496,342.499 239.932 C 343.053 239.367,343.455 238.905,343.392 238.905 C 343.329 238.905,342.825 239.367,342.270 239.932 M12.974 239.760 C 12.318 240.553,12.040 240.958,12.153 240.958 C 12.216 240.958,12.542 240.599,12.877 240.160 C 13.498 239.345,13.574 239.037,12.974 239.760 M388.896 241.415 C 388.896 242.356,388.936 242.741,388.985 242.270 C 389.035 241.800,389.035 241.030,388.985 240.559 C 388.936 240.088,388.896 240.473,388.896 241.415 M51.743 240.663 C 52.026 240.718,52.437 240.716,52.655 240.659 C 52.873 240.602,52.641 240.557,52.139 240.560 C 51.637 240.562,51.459 240.609,51.743 240.663 M130.809 243.468 C 130.809 244.033,130.854 244.264,130.908 243.982 C 130.963 243.699,130.963 243.237,130.908 242.955 C 130.854 242.673,130.809 242.904,130.809 243.468 M172.333 243.867 C 173.933 243.906,176.552 243.906,178.152 243.867 C 179.752 243.828,178.443 243.796,175.242 243.796 C 172.042 243.796,170.733 243.828,172.333 243.867 M298.798 271.763 C 298.798 284.877,298.825 290.242,298.859 283.685 C 298.893 277.128,298.893 266.398,298.859 259.840 C 298.825 253.283,298.798 258.648,298.798 271.763 M249.005 249.337 C 249.352 249.389,249.865 249.388,250.146 249.333 C 250.426 249.279,250.143 249.236,249.515 249.238 C 248.888 249.240,248.658 249.284,249.005 249.337 M362.635 249.336 C 362.981 249.389,363.545 249.389,363.890 249.336 C 364.236 249.284,363.953 249.241,363.263 249.241 C 362.573 249.241,362.290 249.284,362.635 249.336 M34.170 250.251 C 34.578 250.301,35.245 250.301,35.653 250.251 C 36.061 250.200,35.727 250.159,34.912 250.159 C 34.096 250.159,33.762 250.200,34.170 250.251 M68.857 250.251 C 69.268 250.302,69.884 250.301,70.227 250.249 C 70.569 250.197,70.234 250.155,69.481 250.156 C 68.728 250.158,68.447 250.200,68.857 250.251 M31.432 250.901 C 30.547 251.381,30.647 251.546,31.546 251.089 C 32.406 250.652,32.558 250.538,32.268 250.551 C 32.153 250.556,31.777 250.713,31.432 250.901 M38.562 251.061 C 38.562 251.105,38.896 251.385,39.304 251.684 C 39.763 252.019,39.922 252.075,39.722 251.828 C 39.418 251.454,38.562 250.888,38.562 251.061 M73.588 251.371 C 73.714 251.482,74.175 251.880,74.614 252.255 L 75.412 252.938 74.842 252.289 C 74.529 251.933,74.067 251.535,73.816 251.406 C 73.565 251.276,73.463 251.261,73.588 251.371 M29.435 252.481 C 28.881 253.046,28.479 253.508,28.542 253.508 C 28.604 253.508,29.109 253.046,29.663 252.481 C 30.218 251.917,30.620 251.455,30.557 251.455 C 30.494 251.455,29.990 251.917,29.435 252.481 M63.920 252.476 C 63.402 253.038,62.978 253.569,62.978 253.655 C 62.978 253.742,63.012 253.770,63.053 253.717 C 63.094 253.665,63.569 253.135,64.109 252.539 C 64.648 251.942,65.038 251.455,64.975 251.455 C 64.913 251.455,64.438 251.914,63.920 252.476 M8.052 252.938 C 8.053 253.565,8.098 253.795,8.150 253.448 C 8.202 253.101,8.201 252.588,8.147 252.307 C 8.093 252.027,8.050 252.310,8.052 252.938 M96.399 265.602 C 96.399 272.693,96.428 275.593,96.463 272.048 C 96.498 268.503,96.498 262.701,96.463 259.156 C 96.428 255.610,96.399 258.511,96.399 265.602 M259.783 253.736 C 260.273 254.238,260.726 254.649,260.789 254.649 C 260.851 254.649,260.502 254.238,260.011 253.736 C 259.521 253.234,259.069 252.824,259.006 252.824 C 258.943 252.824,259.293 253.234,259.783 253.736 M373.759 253.851 C 374.185 254.290,374.585 254.649,374.647 254.649 C 374.710 254.649,374.413 254.290,373.987 253.851 C 373.562 253.411,373.162 253.052,373.099 253.052 C 373.037 253.052,373.334 253.411,373.759 253.851 M42.551 276.098 C 42.551 286.828,42.578 291.218,42.613 285.853 C 42.647 280.488,42.647 271.708,42.613 266.343 C 42.578 260.978,42.551 265.368,42.551 276.098 M281.433 267.655 C 281.433 269.099,281.470 269.689,281.515 268.967 C 281.560 268.246,281.560 267.065,281.515 266.343 C 281.470 265.622,281.433 266.212,281.433 267.655 M395.295 267.770 C 395.296 269.276,395.333 269.862,395.377 269.073 C 395.422 268.283,395.422 267.051,395.377 266.334 C 395.331 265.618,395.295 266.264,395.295 267.770 M379.301 267.770 C 379.303 268.397,379.347 268.627,379.399 268.280 C 379.452 267.933,379.450 267.420,379.396 267.139 C 379.342 266.858,379.299 267.142,379.301 267.770 M331.371 270.394 C 331.371 270.833,331.418 271.013,331.475 270.793 C 331.532 270.573,331.532 270.214,331.475 269.994 C 331.418 269.775,331.371 269.954,331.371 270.394 M130.816 278.608 C 130.816 279.298,130.858 279.581,130.911 279.236 C 130.963 278.890,130.963 278.326,130.911 277.981 C 130.858 277.635,130.816 277.918,130.816 278.608 M96.977 280.342 C 96.976 280.699,98.164 282.270,98.942 282.940 C 99.409 283.343,99.358 283.243,98.767 282.598 C 98.309 282.098,97.719 281.329,97.456 280.890 C 97.193 280.451,96.978 280.204,96.977 280.342 M110.379 281.177 L 109.976 281.917 110.436 281.378 C 110.827 280.920,111.036 280.430,110.839 280.435 C 110.807 280.436,110.600 280.769,110.379 281.177 M259.775 281.631 L 258.642 282.829 259.840 281.697 C 260.499 281.074,261.038 280.535,261.038 280.499 C 261.038 280.329,260.827 280.518,259.775 281.631 M373.637 281.631 L 372.504 282.829 373.702 281.697 C 374.361 281.074,374.900 280.535,374.900 280.499 C 374.900 280.329,374.689 280.518,373.637 281.631 M128.846 287.545 C 128.639 288.071,128.508 288.538,128.553 288.584 C 128.599 288.630,128.808 288.239,129.017 287.716 C 129.226 287.193,129.358 286.726,129.309 286.678 C 129.261 286.629,129.052 287.020,128.846 287.545 M79.195 288.078 C 79.195 288.203,79.341 288.562,79.521 288.876 C 79.700 289.190,79.847 289.344,79.847 289.218 C 79.847 289.093,79.700 288.734,79.521 288.420 C 79.341 288.106,79.195 287.952,79.195 288.078 M80.319 290.473 C 80.576 290.975,80.836 291.386,80.899 291.386 C 80.962 291.386,80.804 290.975,80.548 290.473 C 80.292 289.971,80.031 289.561,79.968 289.561 C 79.905 289.561,80.063 289.971,80.319 290.473 M226.811 293.731 C 226.811 293.765,227.607 294.561,228.580 295.499 L 230.348 297.205 228.642 295.436 C 227.058 293.794,226.811 293.564,226.811 293.731 M342.156 295.265 C 343.028 296.144,343.793 296.863,343.855 296.863 C 343.918 296.863,343.256 296.144,342.384 295.265 C 341.513 294.387,340.748 293.668,340.685 293.668 C 340.623 293.668,341.285 294.387,342.156 295.265 M384.361 295.322 L 383.229 296.520 384.427 295.388 C 385.086 294.765,385.625 294.226,385.625 294.190 C 385.625 294.020,385.413 294.209,384.361 295.322 M27.206 295.037 C 27.206 295.476,27.253 295.656,27.311 295.436 C 27.368 295.217,27.368 294.857,27.311 294.638 C 27.253 294.418,27.206 294.598,27.206 295.037 M8.044 295.379 C 8.046 295.881,8.093 296.060,8.148 295.776 C 8.202 295.492,8.200 295.081,8.143 294.863 C 8.086 294.645,8.041 294.877,8.044 295.379 M270.381 295.436 L 269.595 296.292 270.451 295.506 C 270.921 295.073,271.306 294.688,271.306 294.650 C 271.306 294.476,271.113 294.640,270.381 295.436 M84.984 296.576 C 85.855 297.478,87.036 298.535,87.608 298.924 C 88.507 299.534,88.540 299.544,87.849 298.991 C 87.410 298.640,86.229 297.583,85.225 296.643 L 83.400 294.934 84.984 296.576 M122.761 296.748 C 122.207 297.313,121.805 297.775,121.867 297.775 C 121.930 297.775,122.435 297.313,122.989 296.748 C 123.543 296.184,123.946 295.722,123.883 295.722 C 123.820 295.722,123.315 296.184,122.761 296.748 M25.927 299.315 C 25.748 299.661,25.171 300.456,24.644 301.084 L 23.686 302.225 24.748 301.105 C 25.713 300.087,26.650 298.688,26.367 298.688 C 26.304 298.688,26.106 298.970,25.927 299.315 M119.566 299.400 C 118.771 300.097,118.771 300.098,119.503 299.612 C 119.907 299.343,120.298 299.025,120.372 298.906 C 120.592 298.549,120.409 298.662,119.566 299.400 M58.540 301.581 C 57.793 302.284,57.383 302.750,57.627 302.617 C 58.060 302.380,60.210 300.277,60.002 300.294 C 59.944 300.298,59.287 300.877,58.540 301.581 M10.610 301.168 C 10.987 301.584,11.603 302.137,11.979 302.397 C 12.788 302.955,12.606 302.758,11.067 301.411 C 10.224 300.673,10.105 300.610,10.610 301.168 M201.130 301.483 L 200.228 302.453 201.198 301.551 C 202.100 300.712,202.273 300.513,202.100 300.513 C 202.063 300.513,201.626 300.950,201.130 301.483 M301.426 301.312 C 301.852 301.751,302.252 302.111,302.314 302.111 C 302.377 302.111,302.080 301.751,301.654 301.312 C 301.229 300.873,300.829 300.513,300.766 300.513 C 300.703 300.513,301.000 300.873,301.426 301.312 M45.066 301.179 C 45.509 301.689,46.777 302.680,46.777 302.517 C 46.777 302.472,46.289 302.035,45.693 301.545 C 45.097 301.055,44.815 300.890,45.066 301.179 M116.372 301.312 C 115.807 301.614,115.426 301.867,115.525 301.872 C 115.768 301.886,117.513 300.989,117.513 300.851 C 117.513 300.700,117.522 300.696,116.372 301.312 M103.537 304.554 C 103.819 304.608,104.281 304.608,104.564 304.554 C 104.846 304.499,104.615 304.455,104.050 304.455 C 103.485 304.455,103.254 304.499,103.537 304.554 M47.519 323.951 C 47.864 324.004,48.428 324.004,48.774 323.951 C 49.119 323.899,48.836 323.856,48.146 323.856 C 47.456 323.856,47.173 323.899,47.519 323.951 M89.618 323.953 C 90.026 324.003,90.693 324.003,91.101 323.953 C 91.509 323.902,91.175 323.861,90.359 323.861 C 89.544 323.861,89.210 323.902,89.618 323.953 M169.025 323.953 C 169.432 324.003,170.100 324.003,170.508 323.953 C 170.916 323.902,170.582 323.861,169.766 323.861 C 168.950 323.861,168.617 323.902,169.025 323.953 M205.362 323.916 C 206.163 324.093,207.597 324.124,207.497 323.963 C 207.438 323.867,206.856 323.800,206.204 323.814 C 205.553 323.829,205.174 323.875,205.362 323.916 M216.771 323.915 C 217.619 324.100,218.782 324.132,218.681 323.968 C 218.620 323.869,218.088 323.800,217.499 323.814 C 216.911 323.829,216.583 323.874,216.771 323.915 M225.814 323.968 C 225.752 324.068,226.080 324.113,226.542 324.069 C 227.953 323.936,228.119 323.842,226.996 323.814 C 226.407 323.800,225.875 323.869,225.814 323.968 M235.301 323.957 C 236.143 324.001,237.580 324.001,238.495 323.957 C 239.411 323.914,238.722 323.878,236.965 323.878 C 235.208 323.877,234.459 323.913,235.301 323.957 M256.646 323.958 C 257.807 323.999,259.706 323.999,260.867 323.958 C 262.028 323.916,261.078 323.883,258.756 323.883 C 256.435 323.883,255.485 323.916,256.646 323.958 M270.108 323.949 C 270.391 324.003,270.853 324.003,271.135 323.949 C 271.418 323.894,271.187 323.850,270.622 323.850 C 270.057 323.850,269.826 323.894,270.108 323.949 M278.779 323.949 C 279.062 324.003,279.524 324.003,279.806 323.949 C 280.088 323.894,279.857 323.850,279.293 323.850 C 278.728 323.850,278.497 323.894,278.779 323.949 M287.885 323.959 C 287.826 324.053,289.299 324.130,291.158 324.130 C 293.017 324.130,294.490 324.053,294.431 323.959 C 294.373 323.865,292.900 323.788,291.158 323.788 C 289.416 323.788,287.943 323.865,287.885 323.959 M308.187 323.968 C 308.126 324.068,308.453 324.113,308.915 324.069 C 310.326 323.936,310.492 323.842,309.369 323.814 C 308.780 323.800,308.248 323.869,308.187 323.968 M316.407 323.959 C 316.349 324.053,316.847 324.130,317.513 324.130 C 318.179 324.130,318.677 324.053,318.618 323.959 C 318.560 323.865,318.063 323.788,317.513 323.788 C 316.963 323.788,316.465 323.865,316.407 323.959 M324.929 323.915 C 325.777 324.100,326.940 324.132,326.839 323.968 C 326.777 323.869,326.246 323.800,325.657 323.814 C 325.068 323.829,324.740 323.874,324.929 323.915 M351.792 323.952 C 352.197 324.003,352.916 324.004,353.389 323.954 C 353.863 323.905,353.531 323.864,352.653 323.863 C 351.774 323.862,351.387 323.902,351.792 323.952 M366.403 323.949 C 366.687 324.004,367.098 324.002,367.316 323.945 C 367.534 323.887,367.302 323.843,366.800 323.845 C 366.298 323.848,366.119 323.895,366.403 323.949 M379.413 323.955 C 379.949 324.003,380.771 324.003,381.238 323.954 C 381.706 323.905,381.266 323.865,380.262 323.866 C 379.258 323.867,378.876 323.907,379.413 323.955 M22.356 325.110 L 22.466 326.184 22.544 325.298 C 22.586 324.811,22.537 324.328,22.433 324.225 C 22.330 324.122,22.296 324.520,22.356 325.110 M28.626 324.305 C 28.565 324.463,28.542 327.364,28.576 330.751 L 28.637 336.908 28.751 330.462 C 28.814 326.916,28.836 324.016,28.801 324.016 C 28.765 324.016,28.687 324.146,28.626 324.305 M35.254 325.043 C 35.254 325.584,35.331 325.978,35.425 325.920 C 35.519 325.862,35.596 325.467,35.596 325.043 C 35.596 324.618,35.519 324.223,35.425 324.165 C 35.331 324.107,35.254 324.502,35.254 325.043 M69.088 330.518 L 69.152 336.998 68.062 337.085 L 66.971 337.172 68.112 337.154 L 69.253 337.136 69.313 330.762 C 69.347 327.257,69.295 324.310,69.199 324.213 C 69.103 324.117,69.053 326.954,69.088 330.518 M110.553 325.043 C 110.553 325.584,110.630 325.978,110.724 325.920 C 110.819 325.862,110.896 325.467,110.896 325.043 C 110.896 324.618,110.819 324.223,110.724 324.165 C 110.630 324.107,110.553 324.502,110.553 325.043 M132.904 324.304 C 132.843 324.463,132.821 327.415,132.854 330.865 L 132.915 337.136 134.056 337.154 L 135.197 337.172 134.106 337.085 L 133.015 336.998 133.079 330.507 C 133.114 326.937,133.114 324.016,133.079 324.016 C 133.044 324.016,132.965 324.146,132.904 324.304 M138.277 325.613 C 137.498 326.492,136.912 327.210,136.975 327.210 C 137.038 327.210,137.727 326.492,138.505 325.613 C 139.284 324.735,139.870 324.016,139.807 324.016 C 139.745 324.016,139.056 324.735,138.277 325.613 M142.174 324.226 C 142.164 324.405,141.980 324.764,141.765 325.025 C 141.397 325.472,141.405 325.471,141.906 325.010 C 142.199 324.740,142.383 324.381,142.315 324.211 C 142.216 323.961,142.189 323.963,142.174 324.226 M148.191 324.309 C 148.129 324.469,148.107 326.497,148.141 328.815 L 148.204 333.029 148.318 328.522 C 148.429 324.103,148.417 323.717,148.191 324.309 M156.628 328.465 C 156.627 330.975,156.661 332.033,156.702 330.816 C 156.743 329.600,156.743 327.546,156.702 326.253 C 156.661 324.960,156.628 325.956,156.628 328.465 M158.910 328.694 C 158.910 331.329,158.943 332.376,158.984 331.020 C 159.024 329.664,159.024 327.508,158.984 326.228 C 158.943 324.949,158.910 326.058,158.910 328.694 M172.333 324.388 C 172.783 324.521,172.923 326.394,172.499 326.604 C 172.370 326.668,172.396 326.693,172.556 326.661 C 173.090 326.553,172.937 324.374,172.390 324.317 C 172.036 324.281,172.023 324.297,172.333 324.388 M254.250 325.043 C 254.253 325.545,254.300 325.723,254.354 325.439 C 254.409 325.156,254.407 324.745,254.350 324.527 C 254.292 324.309,254.248 324.541,254.250 325.043 M263.149 325.043 C 263.152 325.545,263.199 325.723,263.253 325.439 C 263.308 325.156,263.306 324.745,263.249 324.527 C 263.192 324.309,263.147 324.541,263.149 325.043 M233.528 330.405 C 233.528 333.731,233.560 335.091,233.599 333.428 C 233.638 331.766,233.638 329.044,233.599 327.382 C 233.560 325.719,233.528 327.079,233.528 330.405 M47.633 326.002 C 47.915 326.057,48.377 326.057,48.659 326.002 C 48.942 325.948,48.711 325.904,48.146 325.904 C 47.581 325.904,47.350 325.948,47.633 326.002 M90.077 326.003 C 90.361 326.057,90.771 326.055,90.990 325.998 C 91.208 325.941,90.975 325.896,90.473 325.899 C 89.971 325.901,89.793 325.948,90.077 326.003 M140.319 326.697 L 139.532 327.553 140.388 326.766 C 141.184 326.035,141.348 325.841,141.174 325.841 C 141.136 325.841,140.751 326.226,140.319 326.697 M169.139 325.999 C 169.358 326.056,169.718 326.056,169.937 325.999 C 170.157 325.941,169.977 325.894,169.538 325.894 C 169.099 325.894,168.919 325.941,169.139 325.999 M31.111 327.781 C 31.112 328.785,31.152 329.167,31.200 328.631 C 31.248 328.094,31.247 327.272,31.198 326.805 C 31.149 326.338,31.110 326.777,31.111 327.781 M91.843 326.336 C 92.094 326.475,92.509 326.754,92.766 326.956 C 93.023 327.159,92.945 327.042,92.592 326.697 C 92.238 326.352,91.823 326.073,91.668 326.077 C 91.513 326.080,91.592 326.197,91.843 326.336 M236.033 326.380 C 235.967 326.551,235.945 327.296,235.983 328.035 L 236.052 329.378 238.256 329.492 C 239.468 329.555,240.412 329.529,240.353 329.435 C 240.295 329.341,239.329 329.264,238.207 329.264 L 236.167 329.264 236.167 327.798 C 236.167 326.593,236.238 326.313,236.566 326.227 C 236.940 326.129,236.940 326.121,236.559 326.096 C 236.335 326.082,236.099 326.209,236.033 326.380 M257.098 326.234 C 257.303 326.379,257.397 327.851,257.447 331.671 L 257.515 336.908 257.508 331.565 C 257.502 327.013,257.451 326.208,257.159 326.128 C 256.910 326.060,256.894 326.089,257.098 326.234 M260.008 326.355 C 259.832 326.837,259.773 337.239,259.946 337.065 C 260.095 336.915,260.322 326.069,260.175 326.069 C 260.140 326.070,260.065 326.198,260.008 326.355 M290.762 326.233 C 291.109 326.286,291.622 326.284,291.903 326.230 C 292.183 326.176,291.900 326.133,291.272 326.135 C 290.645 326.137,290.415 326.181,290.762 326.233 M380.706 326.362 C 380.644 326.524,380.622 328.500,380.657 330.755 L 380.720 334.855 380.834 330.462 C 380.945 326.153,380.933 325.771,380.706 326.362 M382.148 326.231 C 382.431 326.286,382.842 326.283,383.060 326.226 C 383.278 326.169,383.046 326.125,382.544 326.127 C 382.042 326.130,381.864 326.176,382.148 326.231 M84.623 327.344 C 84.369 327.919,84.201 328.430,84.250 328.479 C 84.300 328.529,84.556 328.058,84.820 327.434 C 85.084 326.809,85.252 326.298,85.193 326.298 C 85.134 326.298,84.877 326.768,84.623 327.344 M107.525 331.625 L 107.473 337.066 106.332 336.987 C 105.704 336.944,105.191 336.985,105.191 337.079 C 105.191 337.385,107.479 337.272,107.599 336.960 C 107.660 336.801,107.680 334.311,107.644 331.427 L 107.578 326.184 107.525 331.625 M87.527 327.228 C 87.203 327.614,86.940 328.051,86.944 328.198 C 86.947 328.345,87.064 328.260,87.203 328.009 C 87.342 327.758,87.665 327.322,87.920 327.039 C 88.176 326.757,88.325 326.526,88.252 326.526 C 88.178 326.526,87.852 326.842,87.527 327.228 M135.352 327.610 C 135.305 328.971,135.458 329.069,136.241 328.180 L 136.794 327.553 136.180 328.093 L 135.566 328.634 135.480 327.523 L 135.393 326.412 135.352 327.610 M165.260 327.553 C 165.263 328.055,165.309 328.233,165.364 327.949 C 165.418 327.666,165.416 327.255,165.359 327.037 C 165.302 326.819,165.258 327.051,165.260 327.553 M385.168 326.826 C 385.168 326.865,385.502 327.199,385.910 327.567 L 386.651 328.237 385.981 327.496 C 385.357 326.804,385.168 326.649,385.168 326.826 M138.493 328.751 L 137.707 329.606 138.562 328.820 C 139.359 328.088,139.523 327.895,139.349 327.895 C 139.311 327.895,138.926 328.280,138.493 328.751 M96.345 329.264 C 96.345 329.703,96.392 329.883,96.449 329.663 C 96.507 329.444,96.507 329.084,96.449 328.865 C 96.392 328.645,96.345 328.825,96.345 329.264 M353.295 328.922 C 353.331 329.276,353.520 329.385,354.138 329.408 C 354.909 329.437,354.911 329.435,354.207 329.338 C 353.783 329.279,353.431 329.076,353.364 328.851 C 353.281 328.572,353.262 328.592,353.295 328.922 M271.763 329.321 C 271.763 329.415,273.200 329.492,274.957 329.492 C 276.714 329.492,278.152 329.415,278.152 329.321 C 278.152 329.227,276.714 329.150,274.957 329.150 C 273.200 329.150,271.763 329.227,271.763 329.321 M84.041 330.519 C 84.042 331.272,84.085 331.553,84.136 331.143 C 84.186 330.732,84.185 330.116,84.133 329.773 C 84.081 329.431,84.040 329.766,84.041 330.519 M291.215 329.432 C 291.811 329.479,292.787 329.479,293.383 329.432 C 293.979 329.385,293.491 329.346,292.299 329.346 C 291.107 329.346,290.619 329.385,291.215 329.432 M35.254 330.519 C 35.254 331.060,35.331 331.455,35.425 331.397 C 35.519 331.338,35.596 330.944,35.596 330.519 C 35.596 330.095,35.519 329.700,35.425 329.642 C 35.331 329.583,35.254 329.978,35.254 330.519 M331.842 330.633 C 331.842 331.323,331.885 331.606,331.938 331.261 C 331.990 330.916,331.990 330.351,331.938 330.006 C 331.885 329.661,331.842 329.943,331.842 330.633 M171.904 330.431 C 172.263 330.710,172.751 331.255,172.987 331.642 C 173.222 332.028,173.416 332.224,173.416 332.077 C 173.417 331.695,172.317 330.438,171.738 330.159 C 171.433 330.012,171.495 330.114,171.904 330.431 M86.533 331.318 C 86.533 331.757,86.580 331.937,86.638 331.717 C 86.695 331.497,86.695 331.138,86.638 330.918 C 86.580 330.699,86.533 330.878,86.533 331.318 M137.935 331.546 C 138.425 332.048,138.878 332.459,138.940 332.459 C 139.003 332.459,138.653 332.048,138.163 331.546 C 137.673 331.044,137.221 330.633,137.158 330.633 C 137.095 330.633,137.445 331.044,137.935 331.546 M96.345 331.546 C 96.345 331.985,96.392 332.165,96.449 331.945 C 96.507 331.726,96.507 331.366,96.449 331.147 C 96.392 330.927,96.345 331.107,96.345 331.546 M31.131 333.314 L 31.147 335.083 33.257 335.148 L 35.368 335.214 35.368 336.112 L 35.368 337.010 32.116 337.082 L 28.865 337.155 32.173 337.145 L 35.482 337.136 35.482 336.110 L 35.482 335.083 33.381 335.017 L 31.280 334.952 31.198 333.248 L 31.116 331.544 31.131 333.314 M236.034 331.855 C 235.968 332.025,235.947 332.821,235.987 333.624 L 236.059 335.083 236.170 333.314 C 236.281 331.544,236.256 331.276,236.034 331.855 M135.324 332.173 C 135.330 332.268,135.664 332.595,136.065 332.900 L 136.794 333.456 136.124 332.729 C 135.427 331.973,135.302 331.887,135.324 332.173 M86.718 332.527 C 86.699 332.894,87.360 333.955,87.883 334.397 L 88.420 334.851 87.934 334.282 C 87.667 333.970,87.286 333.406,87.088 333.029 C 86.889 332.653,86.723 332.427,86.718 332.527 M173.470 333.371 C 173.470 333.811,173.517 333.990,173.574 333.771 C 173.632 333.551,173.632 333.192,173.574 332.972 C 173.517 332.752,173.470 332.932,173.470 333.371 M140.787 334.626 C 141.596 335.442,142.309 336.110,142.371 336.110 C 142.434 336.110,141.824 335.442,141.015 334.626 C 140.207 333.811,139.494 333.143,139.431 333.143 C 139.369 333.143,139.979 333.811,140.787 334.626 M136.908 333.740 C 136.908 333.859,137.550 334.569,138.334 335.318 L 139.760 336.680 138.391 335.202 C 137.638 334.390,136.997 333.680,136.965 333.624 C 136.934 333.569,136.908 333.621,136.908 333.740 M170.907 334.002 C 170.907 334.139,170.746 334.413,170.548 334.610 C 170.351 334.807,170.296 334.969,170.426 334.969 C 170.715 334.969,171.224 334.069,171.040 333.884 C 170.967 333.811,170.907 333.864,170.907 334.002 M42.392 334.398 C 42.524 334.649,43.022 335.214,43.499 335.653 C 44.286 336.378,43.615 335.515,42.258 334.056 C 42.199 333.993,42.260 334.147,42.392 334.398 M51.257 334.438 C 51.399 334.542,51.572 334.832,51.642 335.083 C 51.741 335.443,51.758 335.422,51.725 334.986 C 51.702 334.683,51.529 334.392,51.341 334.342 C 51.114 334.281,51.086 334.313,51.257 334.438 M155.277 334.756 C 154.900 334.997,154.709 335.195,154.852 335.196 C 154.995 335.196,155.354 334.995,155.651 334.748 C 156.329 334.183,156.166 334.186,155.277 334.756 M85.796 335.539 C 86.222 335.978,86.621 336.338,86.684 336.338 C 86.747 336.338,86.450 335.978,86.024 335.539 C 85.598 335.100,85.199 334.740,85.136 334.740 C 85.073 334.740,85.370 335.100,85.796 335.539 M148.953 335.313 C 149.082 335.566,149.428 335.976,149.722 336.225 C 150.238 336.661,150.237 336.653,149.690 335.994 C 148.781 334.899,148.704 334.829,148.953 335.313 M157.352 335.936 C 156.510 336.814,156.605 336.925,157.523 336.134 C 157.885 335.822,158.494 334.933,158.308 334.988 C 158.272 334.998,157.842 335.425,157.352 335.936 M342.370 335.710 L 341.700 336.452 342.442 335.782 C 343.133 335.157,343.288 334.969,343.112 334.969 C 343.072 334.969,342.739 335.302,342.370 335.710 M153.283 335.358 C 153.567 335.413,153.977 335.411,154.195 335.354 C 154.414 335.296,154.181 335.252,153.679 335.254 C 153.177 335.257,152.999 335.304,153.283 335.358 M372.215 336.110 C 372.215 336.549,372.262 336.728,372.319 336.509 C 372.377 336.289,372.377 335.930,372.319 335.710 C 372.262 335.491,372.215 335.670,372.215 336.110 M51.284 336.385 C 50.865 336.814,51.006 336.927,51.540 336.589 C 51.712 336.480,51.814 336.297,51.768 336.183 C 51.721 336.070,51.503 336.160,51.284 336.385 M58.034 336.566 C 58.073 337.156,59.789 337.564,60.260 337.094 C 60.362 336.992,59.946 336.943,59.334 336.986 C 58.324 337.057,58.213 337.015,58.110 336.530 C 58.003 336.022,57.999 336.024,58.034 336.566 M93.098 336.566 C 92.658 336.806,92.381 337.007,92.481 337.013 C 92.723 337.025,94.010 336.356,94.010 336.218 C 94.010 336.068,93.997 336.074,93.098 336.566 M117.861 336.549 C 117.696 337.067,115.619 337.268,115.381 336.788 C 115.317 336.660,115.291 336.685,115.323 336.845 C 115.434 337.401,117.671 337.351,117.974 336.786 C 118.117 336.518,118.184 336.248,118.123 336.187 C 118.061 336.125,117.943 336.288,117.861 336.549 M19.167 336.664 C 19.167 337.004,18.995 337.054,18.048 336.987 C 17.432 336.944,16.976 336.985,17.034 337.079 C 17.246 337.420,19.175 337.267,19.317 336.898 C 19.391 336.705,19.388 336.482,19.309 336.404 C 19.231 336.326,19.167 336.443,19.167 336.664 M142.534 336.690 C 142.660 337.019,142.504 337.056,141.298 336.987 C 140.538 336.944,139.965 336.985,140.023 337.079 C 140.236 337.421,142.841 337.275,142.841 336.922 C 142.841 336.741,142.739 336.530,142.615 336.453 C 142.483 336.372,142.449 336.470,142.534 336.690 M127.325 336.777 C 127.325 336.982,126.972 337.042,126.091 336.986 C 125.412 336.943,124.905 336.985,124.963 337.079 C 125.128 337.344,127.279 337.281,127.448 337.007 C 127.531 336.873,127.537 336.702,127.462 336.627 C 127.386 336.551,127.325 336.619,127.325 336.777 " stroke="none" fill="#b1def0" fill-rule="evenodd"></path><path id="path4" d="M126.412 201.266 C 127.252 201.836,127.675 201.972,127.128 201.496 C 126.832 201.238,126.473 201.028,126.330 201.030 C 126.187 201.032,126.224 201.138,126.412 201.266 M113.634 202.966 C 113.080 203.531,112.677 203.993,112.740 203.993 C 112.803 203.993,113.308 203.531,113.862 202.966 C 114.416 202.402,114.818 201.940,114.756 201.940 C 114.693 201.940,114.188 202.402,113.634 202.966 M128.808 203.080 C 129.298 203.582,129.750 203.993,129.813 203.993 C 129.876 203.993,129.526 203.582,129.036 203.080 C 128.546 202.578,128.093 202.168,128.031 202.168 C 127.968 202.168,128.318 202.578,128.808 203.080 M130.461 205.344 C 130.806 205.961,131.127 206.428,131.174 206.381 C 131.273 206.282,130.095 204.221,129.939 204.221 C 129.882 204.221,130.117 204.726,130.461 205.344 M155.562 205.751 C 155.844 205.806,156.306 205.806,156.589 205.751 C 156.871 205.697,156.640 205.653,156.075 205.653 C 155.511 205.653,155.280 205.697,155.562 205.751 M193.782 205.748 C 194.002 205.805,194.361 205.805,194.581 205.748 C 194.800 205.690,194.621 205.643,194.181 205.643 C 193.742 205.643,193.562 205.690,193.782 205.748 M285.296 205.761 C 286.903 205.800,289.470 205.800,291.000 205.761 C 292.530 205.721,291.215 205.689,288.078 205.689 C 284.940 205.689,283.688 205.722,285.296 205.761 M326.127 205.761 C 327.601 205.801,330.014 205.801,331.489 205.761 C 332.963 205.721,331.757 205.689,328.808 205.689 C 325.859 205.689,324.652 205.721,326.127 205.761 M336.338 206.575 C 336.338 206.614,336.671 206.948,337.079 207.316 L 337.821 207.986 337.151 207.245 C 336.526 206.553,336.338 206.398,336.338 206.575 M148.873 208.614 L 148.203 209.355 148.945 208.685 C 149.353 208.317,149.686 207.983,149.686 207.944 C 149.686 207.767,149.498 207.923,148.873 208.614 M187.436 208.614 L 186.766 209.355 187.507 208.685 C 187.915 208.317,188.249 207.983,188.249 207.944 C 188.249 207.767,188.060 207.923,187.436 208.614 M110.497 210.496 C 110.499 210.998,110.546 211.177,110.601 210.893 C 110.655 210.609,110.653 210.198,110.596 209.980 C 110.539 209.762,110.494 209.994,110.497 210.496 M131.941 210.610 C 131.941 211.050,131.988 211.229,132.045 211.010 C 132.103 210.790,132.103 210.431,132.045 210.211 C 131.988 209.991,131.941 210.171,131.941 210.610 M112.194 216.265 C 112.417 216.676,112.956 217.344,113.392 217.748 L 114.185 218.483 113.396 217.568 C 112.962 217.065,112.423 216.397,112.198 216.085 C 111.803 215.536,111.803 215.543,112.194 216.265 M129.848 216.714 C 129.430 217.310,129.282 217.625,129.518 217.414 C 129.932 217.045,130.861 215.630,130.690 215.630 C 130.644 215.630,130.265 216.118,129.848 216.714 M146.098 216.543 C 146.098 217.108,146.142 217.339,146.196 217.056 C 146.251 216.774,146.251 216.312,146.196 216.030 C 146.142 215.747,146.098 215.978,146.098 216.543 M128.107 218.655 L 127.439 219.394 128.123 218.824 C 128.500 218.511,128.851 218.229,128.903 218.197 C 128.955 218.166,128.948 218.090,128.886 218.029 C 128.825 217.967,128.474 218.249,128.107 218.655 M120.764 221.270 C 121.110 221.322,121.674 221.322,122.019 221.270 C 122.365 221.218,122.082 221.175,121.392 221.175 C 120.702 221.175,120.419 221.218,120.764 221.270 M28.468 230.852 C 28.752 230.906,29.163 230.904,29.381 230.847 C 29.599 230.790,29.367 230.745,28.865 230.748 C 28.363 230.750,28.184 230.797,28.468 230.852 M33.600 230.848 C 33.819 230.905,34.179 230.905,34.398 230.848 C 34.618 230.790,34.438 230.743,33.999 230.743 C 33.560 230.743,33.380 230.790,33.600 230.848 M228.736 232.573 L 228.066 233.314 228.808 232.644 C 229.216 232.276,229.549 231.942,229.549 231.903 C 229.549 231.726,229.361 231.881,228.736 232.573 M117.969 234.569 C 117.516 234.862,118.086 234.862,118.768 234.569 L 119.224 234.373 118.768 234.361 C 118.517 234.354,118.157 234.448,117.969 234.569 M17.105 235.498 L 16.315 236.199 17.171 235.586 C 17.927 235.043,18.173 234.797,17.961 234.797 C 17.924 234.797,17.539 235.113,17.105 235.498 M86.708 235.076 C 86.708 235.121,87.196 235.558,87.792 236.048 C 88.388 236.538,88.671 236.703,88.420 236.414 C 87.976 235.904,86.708 234.913,86.708 235.076 M126.526 235.638 C 127.415 236.534,128.952 237.772,128.351 237.109 C 127.975 236.693,127.359 236.140,126.982 235.881 C 126.606 235.621,126.400 235.512,126.526 235.638 M223.950 236.680 L 222.818 237.878 224.016 236.746 C 225.129 235.693,225.319 235.482,225.148 235.482 C 225.112 235.482,224.573 236.021,223.950 236.680 M56.241 237.593 L 54.421 239.475 56.303 237.655 C 57.339 236.654,58.186 235.807,58.186 235.773 C 58.186 235.606,57.932 235.844,56.241 237.593 M14.596 237.707 L 13.349 239.019 14.661 237.772 C 15.382 237.086,15.973 236.495,15.973 236.460 C 15.973 236.290,15.754 236.488,14.596 237.707 M47.908 237.365 C 48.468 237.961,48.956 238.448,48.992 238.448 C 49.164 238.448,48.982 238.244,47.975 237.298 L 46.891 236.281 47.908 237.365 M91.403 239.703 C 92.681 241.338,92.775 241.439,92.463 240.838 C 92.331 240.584,91.798 239.917,91.279 239.355 C 90.356 238.358,90.359 238.367,91.403 239.703 M269.025 238.520 C 269.025 238.559,269.358 238.893,269.766 239.261 L 270.508 239.932 269.838 239.190 C 269.213 238.499,269.025 238.343,269.025 238.520 M49.628 239.325 C 49.877 239.619,50.287 239.965,50.539 240.095 C 51.024 240.343,50.953 240.266,49.859 239.358 C 49.200 238.811,49.192 238.809,49.628 239.325 M53.394 240.073 C 52.955 240.309,52.764 240.501,52.970 240.502 C 53.175 240.502,53.586 240.300,53.882 240.053 C 54.535 239.510,54.439 239.513,53.394 240.073 M271.306 240.844 C 271.732 241.284,272.132 241.643,272.194 241.643 C 272.257 241.643,271.960 241.284,271.535 240.844 C 271.109 240.405,270.709 240.046,270.646 240.046 C 270.584 240.046,270.881 240.405,271.306 240.844 M11.907 240.844 C 11.764 241.158,11.684 241.415,11.730 241.415 C 11.776 241.415,11.981 241.158,12.187 240.844 C 12.392 240.531,12.472 240.274,12.364 240.274 C 12.255 240.274,12.050 240.531,11.907 240.844 M340.545 241.700 L 339.875 242.442 340.616 241.771 C 341.307 241.147,341.463 240.958,341.286 240.958 C 341.247 240.958,340.913 241.292,340.545 241.700 M94.056 244.034 C 94.329 244.596,94.592 245.016,94.640 244.969 C 94.743 244.865,93.821 243.012,93.666 243.012 C 93.608 243.012,93.783 243.472,94.056 244.034 M10.143 243.946 C 9.942 244.334,9.819 244.692,9.868 244.742 C 9.918 244.791,10.129 244.474,10.338 244.036 C 10.807 243.052,10.644 242.977,10.143 243.946 M318.193 271.877 C 318.193 285.054,318.221 290.411,318.254 283.782 C 318.288 277.152,318.288 266.371,318.254 259.823 C 318.221 253.275,318.193 258.699,318.193 271.877 M64.391 252.287 L 63.320 253.348 64.461 252.362 C 65.088 251.820,65.645 251.343,65.697 251.302 C 65.749 251.260,65.718 251.226,65.627 251.226 C 65.536 251.226,64.979 251.704,64.391 252.287 M96.345 252.139 C 96.345 252.578,96.392 252.758,96.449 252.539 C 96.507 252.319,96.507 251.959,96.449 251.740 C 96.392 251.520,96.345 251.700,96.345 252.139 M74.615 252.481 C 75.041 252.921,75.440 253.280,75.503 253.280 C 75.566 253.280,75.269 252.921,74.843 252.481 C 74.417 252.042,74.018 251.683,73.955 251.683 C 73.892 251.683,74.189 252.042,74.615 252.481 M40.488 252.899 C 40.839 253.359,41.173 253.736,41.229 253.736 C 41.388 253.736,40.400 252.402,40.108 252.221 C 39.965 252.133,40.136 252.438,40.488 252.899 M28.935 253.223 C 28.533 253.691,28.231 254.193,28.352 254.193 C 28.399 254.193,28.664 253.885,28.943 253.508 C 29.493 252.764,29.488 252.579,28.935 253.223 M27.444 257.159 C 27.444 257.724,27.488 257.955,27.543 257.673 C 27.597 257.390,27.597 256.928,27.543 256.646 C 27.488 256.363,27.444 256.594,27.444 257.159 M61.894 257.501 C 61.897 258.003,61.944 258.182,61.998 257.898 C 62.053 257.614,62.051 257.204,61.994 256.985 C 61.937 256.767,61.892 256.999,61.894 257.501 M77.002 268.340 C 77.002 274.552,77.032 277.094,77.068 273.987 C 77.104 270.881,77.104 265.799,77.068 262.693 C 77.032 259.586,77.002 262.128,77.002 268.340 M217.509 263.776 C 217.509 264.216,217.556 264.395,217.613 264.176 C 217.670 263.956,217.670 263.597,217.613 263.377 C 217.556 263.157,217.509 263.337,217.509 263.776 M179.749 264.394 C 180.031 264.448,180.493 264.448,180.776 264.394 C 181.058 264.339,180.827 264.295,180.262 264.295 C 179.698 264.295,179.467 264.339,179.749 264.394 M233.497 267.655 C 233.497 268.346,233.540 268.628,233.592 268.283 C 233.644 267.938,233.644 267.373,233.592 267.028 C 233.540 266.683,233.497 266.965,233.497 267.655 M217.296 267.884 C 217.296 268.574,217.339 268.856,217.391 268.511 C 217.443 268.166,217.443 267.601,217.391 267.256 C 217.339 266.911,217.296 267.193,217.296 267.884 M347.356 267.770 C 347.357 268.397,347.402 268.627,347.454 268.280 C 347.507 267.933,347.505 267.420,347.451 267.139 C 347.397 266.858,347.354 267.142,347.356 267.770 M184.655 268.682 C 184.658 269.184,184.705 269.363,184.759 269.079 C 184.814 268.795,184.812 268.384,184.755 268.166 C 184.697 267.948,184.653 268.180,184.655 268.682 M111.417 277.353 C 111.419 277.981,111.463 278.210,111.516 277.863 C 111.568 277.517,111.567 277.003,111.513 276.722 C 111.458 276.442,111.416 276.726,111.417 277.353 M130.800 280.434 C 130.800 280.873,130.847 281.052,130.905 280.833 C 130.962 280.613,130.962 280.254,130.905 280.034 C 130.847 279.815,130.800 279.994,130.800 280.434 M351.854 280.349 C 351.854 280.470,352.290 280.975,352.824 281.471 L 353.793 282.373 352.881 281.350 C 352.379 280.787,351.942 280.282,351.911 280.228 C 351.880 280.174,351.854 280.228,351.854 280.349 M238.895 281.403 C 239.841 282.411,240.046 282.592,240.046 282.421 C 240.046 282.384,239.558 281.896,238.962 281.337 L 237.878 280.319 238.895 281.403 M98.688 282.487 C 99.178 282.989,99.631 283.400,99.693 283.400 C 99.756 283.400,99.406 282.989,98.916 282.487 C 98.426 281.985,97.974 281.574,97.911 281.574 C 97.848 281.574,98.198 281.985,98.688 282.487 M109.170 282.544 L 108.500 283.286 109.241 282.616 C 109.933 281.991,110.088 281.803,109.911 281.803 C 109.872 281.803,109.539 282.136,109.170 282.544 M103.426 284.705 C 103.773 284.757,104.286 284.756,104.567 284.701 C 104.847 284.647,104.564 284.604,103.936 284.606 C 103.309 284.608,103.079 284.652,103.426 284.705 M248.888 286.071 C 249.170 286.125,249.632 286.125,249.914 286.071 C 250.197 286.017,249.966 285.972,249.401 285.972 C 248.836 285.972,248.605 286.017,248.888 286.071 M362.750 286.071 C 363.032 286.125,363.494 286.125,363.776 286.071 C 364.059 286.017,363.828 285.972,363.263 285.972 C 362.698 285.972,362.467 286.017,362.750 286.071 M128.396 288.993 C 128.187 289.431,128.064 289.789,128.121 289.789 C 128.277 289.789,128.970 288.392,128.865 288.287 C 128.816 288.238,128.605 288.555,128.396 288.993 M123.653 296.007 C 122.852 296.917,122.377 297.518,122.599 297.343 C 123.079 296.963,125.361 294.353,125.213 294.353 C 125.156 294.353,124.454 295.097,123.653 296.007 M228.180 295.379 C 228.606 295.819,229.006 296.178,229.068 296.178 C 229.131 296.178,228.834 295.819,228.408 295.379 C 227.983 294.940,227.583 294.581,227.520 294.581 C 227.458 294.581,227.755 294.940,228.180 295.379 M342.042 295.379 C 342.468 295.819,342.868 296.178,342.930 296.178 C 342.993 296.178,342.696 295.819,342.270 295.379 C 341.845 294.940,341.445 294.581,341.382 294.581 C 341.319 294.581,341.616 294.940,342.042 295.379 M84.883 296.748 C 85.692 297.564,86.404 298.232,86.467 298.232 C 86.530 298.232,85.920 297.564,85.111 296.748 C 84.303 295.933,83.590 295.265,83.527 295.265 C 83.464 295.265,84.075 295.933,84.883 296.748 M60.855 298.805 C 60.646 299.243,60.522 299.601,60.580 299.601 C 60.736 299.601,61.429 298.204,61.324 298.099 C 61.275 298.050,61.063 298.367,60.855 298.805 M43.126 298.319 C 43.126 298.564,43.805 299.829,43.936 299.829 C 43.999 299.829,43.881 299.495,43.673 299.087 C 43.250 298.254,43.126 298.081,43.126 298.319 M87.849 299.227 C 87.849 299.290,88.157 299.561,88.534 299.829 C 88.910 300.097,89.218 300.265,89.218 300.202 C 89.218 300.139,88.910 299.869,88.534 299.601 C 88.157 299.333,87.849 299.165,87.849 299.227 M58.871 301.540 C 58.316 302.105,57.914 302.567,57.977 302.567 C 58.040 302.567,58.544 302.105,59.099 301.540 C 59.653 300.975,60.055 300.513,59.992 300.513 C 59.930 300.513,59.425 300.975,58.871 301.540 M187.555 301.483 C 188.500 302.491,188.705 302.672,188.705 302.500 C 188.705 302.464,188.217 301.976,187.621 301.417 L 186.537 300.399 187.555 301.483 M10.724 301.540 C 11.150 301.979,11.550 302.339,11.613 302.339 C 11.675 302.339,11.378 301.979,10.953 301.540 C 10.527 301.101,10.127 300.742,10.064 300.742 C 10.002 300.742,10.299 301.101,10.724 301.540 M24.515 301.483 L 23.845 302.225 24.586 301.555 C 24.994 301.186,25.328 300.852,25.328 300.813 C 25.328 300.637,25.140 300.792,24.515 301.483 M149.002 301.540 C 149.427 301.979,149.827 302.339,149.890 302.339 C 149.953 302.339,149.656 301.979,149.230 301.540 C 148.804 301.101,148.404 300.742,148.342 300.742 C 148.279 300.742,148.576 301.101,149.002 301.540 M90.588 301.082 C 90.588 301.238,91.985 301.931,92.089 301.826 C 92.139 301.777,91.821 301.565,91.383 301.357 C 90.946 301.148,90.588 301.024,90.588 301.082 M110.553 303.708 C 110.266 303.832,110.224 303.904,110.439 303.904 C 110.627 303.904,110.987 303.816,111.238 303.708 C 111.526 303.584,111.568 303.512,111.352 303.512 C 111.164 303.512,110.804 303.600,110.553 303.708 M16.823 304.329 C 17.228 304.379,17.947 304.380,18.420 304.331 C 18.894 304.281,18.562 304.240,17.684 304.239 C 16.805 304.238,16.418 304.279,16.823 304.329 M51.512 304.329 C 51.920 304.380,52.587 304.380,52.995 304.329 C 53.403 304.279,53.069 304.237,52.253 304.237 C 51.438 304.237,51.104 304.279,51.512 304.329 M155.100 304.329 C 155.506 304.379,156.224 304.380,156.698 304.331 C 157.171 304.281,156.840 304.240,155.961 304.239 C 155.083 304.238,154.695 304.279,155.100 304.329 M193.896 304.329 C 194.304 304.380,194.971 304.380,195.379 304.329 C 195.787 304.279,195.454 304.237,194.638 304.237 C 193.822 304.237,193.488 304.279,193.896 304.329 M307.525 304.329 C 307.930 304.379,308.649 304.380,309.122 304.331 C 309.596 304.281,309.264 304.240,308.386 304.239 C 307.507 304.238,307.120 304.279,307.525 304.329 M101.711 304.554 C 101.994 304.608,102.456 304.608,102.738 304.554 C 103.021 304.499,102.790 304.455,102.225 304.455 C 101.660 304.455,101.429 304.499,101.711 304.554 M105.362 304.554 C 105.645 304.608,106.107 304.608,106.389 304.554 C 106.671 304.499,106.440 304.455,105.876 304.455 C 105.311 304.455,105.080 304.499,105.362 304.554 M47.635 323.721 C 47.919 323.776,48.330 323.774,48.548 323.716 C 48.766 323.659,48.534 323.615,48.032 323.617 C 47.530 323.620,47.351 323.666,47.635 323.721 M90.077 323.721 C 90.361 323.776,90.771 323.774,90.990 323.716 C 91.208 323.659,90.975 323.615,90.473 323.617 C 89.971 323.620,89.793 323.666,90.077 323.721 M169.367 323.717 C 169.586 323.774,169.946 323.774,170.165 323.717 C 170.385 323.660,170.205 323.613,169.766 323.613 C 169.327 323.613,169.147 323.660,169.367 323.717 M13.554 324.106 C 13.487 324.281,13.473 324.820,13.523 325.304 C 13.609 326.132,13.616 326.120,13.652 325.090 L 13.691 323.997 18.119 324.064 C 20.554 324.100,22.499 324.053,22.441 323.959 C 22.228 323.616,13.688 323.757,13.554 324.106 M28.671 323.959 C 28.613 324.053,30.053 324.099,31.872 324.061 C 34.329 324.010,35.276 324.068,35.558 324.289 C 35.899 324.555,35.906 324.545,35.625 324.187 C 35.296 323.767,28.920 323.558,28.671 323.959 M58.013 324.052 C 57.800 324.265,57.742 325.672,57.780 329.709 L 57.831 335.083 57.952 329.606 L 58.072 324.130 59.262 324.061 L 60.453 323.993 60.517 326.685 L 60.582 329.378 63.415 329.443 C 64.974 329.478,66.330 329.427,66.428 329.328 C 66.527 329.230,65.281 329.181,63.659 329.220 L 60.711 329.289 60.646 326.596 L 60.582 323.902 59.440 323.835 C 58.748 323.794,58.185 323.880,58.013 324.052 M66.721 324.104 C 66.654 324.278,66.640 324.868,66.688 325.416 C 66.775 326.383,66.778 326.377,66.817 325.193 L 66.857 323.974 68.091 324.052 C 68.769 324.095,69.276 324.053,69.218 323.959 C 69.020 323.640,66.851 323.766,66.721 324.104 M101.860 324.106 C 101.793 324.281,101.771 324.820,101.810 325.304 L 101.882 326.184 103.419 326.251 L 104.955 326.318 105.022 331.727 L 105.090 337.136 105.083 331.660 L 105.077 326.184 103.537 326.116 L 101.997 326.049 101.997 325.023 L 101.997 323.997 106.425 324.064 C 108.860 324.100,110.805 324.053,110.747 323.959 C 110.534 323.616,101.994 323.757,101.860 324.106 M120.479 323.916 C 121.280 324.093,122.714 324.124,122.614 323.963 C 122.555 323.867,121.973 323.800,121.321 323.814 C 120.670 323.829,120.291 323.875,120.479 323.916 M132.957 323.948 C 132.894 324.048,133.393 324.095,134.065 324.053 L 135.287 323.975 135.375 325.252 L 135.462 326.528 135.444 325.215 L 135.425 323.902 134.247 323.834 C 133.600 323.796,133.019 323.847,132.957 323.948 M139.173 324.415 L 138.620 325.043 139.205 324.529 C 139.665 324.126,140.067 324.016,141.087 324.016 C 142.577 324.016,142.689 324.221,141.762 325.258 L 141.140 325.956 141.909 325.234 C 143.009 324.202,142.767 323.788,141.062 323.788 C 139.891 323.788,139.658 323.865,139.173 324.415 M148.238 323.959 C 148.179 324.053,148.687 324.095,149.365 324.052 L 150.599 323.974 150.602 328.387 C 150.604 330.815,150.681 332.920,150.774 333.065 C 150.948 333.341,150.890 324.573,150.714 324.073 C 150.605 323.763,148.422 323.663,148.238 323.959 M157.276 323.952 C 157.623 324.004,158.137 324.003,158.417 323.948 C 158.698 323.894,158.414 323.851,157.787 323.853 C 157.159 323.855,156.930 323.899,157.276 323.952 M271.762 326.479 L 271.874 329.150 271.941 326.660 C 271.977 325.290,271.926 324.088,271.828 323.989 C 271.729 323.890,271.699 325.011,271.762 326.479 M278.038 324.073 C 277.867 324.561,277.801 329.252,277.967 329.083 C 278.113 328.932,278.342 323.786,278.202 323.787 C 278.166 323.788,278.093 323.916,278.038 324.073 M287.610 324.076 C 287.550 324.235,287.527 327.238,287.561 330.750 L 287.622 337.136 287.736 330.462 C 287.798 326.791,287.821 323.788,287.785 323.788 C 287.750 323.788,287.671 323.918,287.610 324.076 M378.198 324.076 C 378.137 324.235,378.115 327.238,378.148 330.750 L 378.209 337.136 378.323 330.462 C 378.386 326.791,378.408 323.788,378.373 323.788 C 378.337 323.788,378.259 323.918,378.198 324.076 M382.376 323.949 C 382.660 324.004,383.070 324.002,383.288 323.945 C 383.507 323.887,383.274 323.843,382.772 323.845 C 382.270 323.848,382.092 323.895,382.376 323.949 M44.780 324.470 C 43.750 325.098,43.846 325.252,44.894 324.652 C 45.949 324.048,45.991 324.016,45.731 324.017 C 45.616 324.017,45.188 324.221,44.780 324.470 M368.102 329.435 C 368.076 332.479,368.132 334.969,368.226 334.969 C 368.320 334.969,368.371 333.352,368.338 331.375 C 368.226 324.559,368.148 323.919,368.102 329.435 M159.137 328.580 C 159.137 331.027,159.171 332.028,159.212 330.804 C 159.253 329.581,159.253 327.578,159.212 326.355 C 159.171 325.131,159.137 326.132,159.137 328.580 M294.617 325.088 L 294.581 326.046 293.383 326.130 L 292.185 326.213 293.390 326.256 C 294.735 326.303,294.900 326.137,294.747 324.893 C 294.662 324.196,294.651 324.213,294.617 325.088 M166.003 325.154 C 165.644 325.530,165.394 325.873,165.447 325.918 C 165.501 325.962,165.837 325.655,166.195 325.235 C 167.002 324.288,166.882 324.237,166.003 325.154 M194.931 325.499 C 194.933 326.127,194.977 326.356,195.030 326.009 C 195.082 325.663,195.081 325.149,195.027 324.869 C 194.972 324.588,194.929 324.872,194.931 325.499 M51.835 325.545 C 51.810 326.187,51.665 326.580,51.398 326.736 C 51.178 326.864,51.114 326.972,51.256 326.975 C 51.745 326.989,52.054 326.326,51.964 325.458 L 51.874 324.586 51.835 325.545 M94.694 325.500 C 95.133 326.001,95.582 326.515,95.692 326.640 C 95.802 326.766,95.785 326.663,95.655 326.412 C 95.525 326.161,95.076 325.648,94.657 325.271 L 93.896 324.587 94.694 325.500 M43.196 325.670 C 42.478 326.461,41.907 327.437,42.068 327.598 C 42.148 327.678,42.213 327.631,42.213 327.494 C 42.213 327.357,42.572 326.776,43.010 326.201 C 43.867 325.080,43.951 324.839,43.196 325.670 M33.371 326.011 C 32.210 326.053,31.260 326.160,31.260 326.249 C 31.259 326.487,35.215 326.303,35.471 326.054 C 35.590 325.937,35.641 325.863,35.585 325.889 C 35.528 325.915,34.532 325.970,33.371 326.011 M109.241 326.011 C 108.394 326.055,107.701 326.163,107.701 326.251 C 107.700 326.483,110.512 326.299,110.770 326.050 C 110.889 325.935,110.941 325.862,110.884 325.886 C 110.828 325.911,110.088 325.967,109.241 326.011 M15.231 326.232 L 16.657 326.320 16.657 331.657 C 16.657 334.593,16.734 337.043,16.828 337.101 C 16.922 337.160,16.948 334.727,16.885 331.696 L 16.771 326.184 15.288 326.164 L 13.805 326.145 15.231 326.232 M19.430 326.811 C 19.461 327.486,19.472 327.497,19.558 326.936 C 19.647 326.353,19.729 326.314,21.064 326.238 L 22.476 326.158 20.936 326.114 L 19.395 326.070 19.430 326.811 M168.169 326.526 C 167.918 326.777,167.722 327.213,167.733 327.496 C 167.750 327.908,167.794 327.870,167.958 327.304 C 168.071 326.916,168.395 326.486,168.679 326.349 C 168.963 326.212,169.067 326.094,168.910 326.085 C 168.754 326.077,168.420 326.275,168.169 326.526 M237.713 326.237 C 238.250 326.285,239.071 326.284,239.538 326.235 C 240.006 326.186,239.566 326.147,238.562 326.148 C 237.558 326.149,237.176 326.189,237.713 326.237 M260.870 326.233 C 261.217 326.286,261.730 326.284,262.011 326.230 C 262.292 326.176,262.008 326.133,261.380 326.135 C 260.753 326.137,260.523 326.181,260.870 326.233 M45.686 326.925 C 45.333 327.270,45.254 327.387,45.511 327.185 C 45.768 326.982,46.184 326.703,46.435 326.564 C 46.686 326.425,46.764 326.309,46.609 326.305 C 46.455 326.301,46.039 326.580,45.686 326.925 M87.949 327.039 L 87.279 327.781 88.076 327.096 C 88.515 326.720,88.917 326.386,88.970 326.355 C 89.023 326.323,88.966 326.298,88.843 326.298 C 88.720 326.298,88.318 326.631,87.949 327.039 M353.291 327.439 C 353.291 328.129,353.334 328.411,353.386 328.066 C 353.439 327.721,353.439 327.156,353.386 326.811 C 353.334 326.466,353.291 326.748,353.291 327.439 M92.667 327.085 C 92.870 327.342,93.149 327.758,93.288 328.009 C 93.426 328.260,93.543 328.339,93.547 328.184 C 93.551 328.029,93.272 327.613,92.926 327.260 C 92.581 326.907,92.465 326.828,92.667 327.085 M139.974 327.268 L 139.304 328.009 140.046 327.339 C 140.454 326.970,140.787 326.637,140.787 326.597 C 140.787 326.421,140.599 326.576,139.974 327.268 M358.993 327.553 C 358.995 328.180,359.039 328.410,359.091 328.063 C 359.144 327.716,359.142 327.203,359.088 326.922 C 359.034 326.641,358.991 326.925,358.993 327.553 M136.095 327.952 L 135.425 328.694 136.167 328.023 C 136.574 327.655,136.908 327.321,136.908 327.282 C 136.908 327.106,136.720 327.261,136.095 327.952 M344.377 329.492 C 344.377 329.932,344.424 330.111,344.481 329.892 C 344.539 329.672,344.539 329.313,344.481 329.093 C 344.424 328.873,344.377 329.053,344.377 329.492 M31.260 329.306 C 31.260 329.391,32.231 329.494,33.418 329.534 C 34.605 329.574,35.503 329.537,35.415 329.451 C 35.200 329.245,31.259 329.106,31.260 329.306 M96.586 330.291 C 96.587 330.918,96.632 331.148,96.684 330.801 C 96.736 330.454,96.735 329.941,96.681 329.660 C 96.627 329.380,96.584 329.663,96.586 330.291 M341.657 330.519 C 341.658 331.272,341.700 331.553,341.751 331.143 C 341.802 330.732,341.801 330.116,341.749 329.773 C 341.697 329.431,341.655 329.766,341.657 330.519 M389.569 330.291 C 389.571 330.918,389.615 331.148,389.667 330.801 C 389.720 330.454,389.718 329.941,389.664 329.660 C 389.610 329.380,389.567 329.663,389.569 330.291 M44.104 330.747 C 44.106 331.375,44.150 331.604,44.203 331.258 C 44.255 330.911,44.254 330.397,44.199 330.117 C 44.145 329.836,44.102 330.120,44.104 330.747 M93.844 330.633 C 93.844 331.198,93.889 331.429,93.943 331.147 C 93.998 330.864,93.998 330.402,93.943 330.120 C 93.889 329.837,93.844 330.068,93.844 330.633 M294.638 330.519 C 294.641 331.021,294.688 331.200,294.742 330.916 C 294.797 330.632,294.795 330.221,294.737 330.003 C 294.680 329.785,294.636 330.017,294.638 330.519 M41.363 330.861 C 41.363 331.426,41.407 331.657,41.462 331.375 C 41.516 331.092,41.516 330.630,41.462 330.348 C 41.407 330.066,41.363 330.297,41.363 330.861 M137.273 330.369 C 137.208 330.474,137.535 330.911,138.001 331.339 L 138.848 332.116 138.102 331.303 C 137.692 330.855,137.427 330.419,137.513 330.333 C 137.598 330.247,137.606 330.177,137.530 330.177 C 137.454 330.177,137.338 330.263,137.273 330.369 M122.305 330.769 C 122.305 331.065,122.089 331.119,121.164 331.055 C 120.536 331.011,120.023 331.052,120.023 331.147 C 120.023 331.241,120.588 331.318,121.278 331.318 C 122.381 331.318,122.533 331.262,122.533 330.861 C 122.533 330.610,122.481 330.405,122.419 330.405 C 122.356 330.405,122.305 330.569,122.305 330.769 M205.647 331.253 C 205.993 331.305,206.557 331.305,206.902 331.253 C 207.248 331.201,206.965 331.158,206.275 331.158 C 205.585 331.158,205.302 331.201,205.647 331.253 M33.314 331.546 L 31.147 331.687 33.244 331.730 C 34.445 331.755,35.401 331.677,35.482 331.546 C 35.560 331.420,35.591 331.337,35.553 331.361 C 35.514 331.385,34.507 331.468,33.314 331.546 M60.569 331.840 C 60.504 332.009,60.484 333.218,60.525 334.528 L 60.600 336.908 60.648 334.341 L 60.696 331.774 63.646 331.774 C 66.268 331.774,66.608 331.819,66.692 332.173 C 66.765 332.477,66.782 332.464,66.765 332.116 C 66.737 331.534,60.788 331.268,60.569 331.840 M237.713 331.713 C 238.250 331.761,239.071 331.761,239.538 331.712 C 240.006 331.663,239.566 331.623,238.562 331.624 C 237.558 331.625,237.176 331.665,237.713 331.713 M271.864 331.839 C 271.799 332.008,271.780 333.269,271.820 334.641 L 271.894 337.136 271.942 334.455 L 271.991 331.774 274.950 331.774 L 277.909 331.774 277.985 334.399 L 278.060 337.023 278.049 334.342 L 278.038 331.660 275.010 331.596 C 272.640 331.546,271.956 331.599,271.864 331.839 M291.450 331.714 C 292.050 331.761,292.974 331.761,293.504 331.713 C 294.033 331.665,293.542 331.626,292.413 331.627 C 291.284 331.628,290.850 331.667,291.450 331.714 M156.356 332.459 C 156.356 332.898,156.403 333.078,156.461 332.858 C 156.518 332.638,156.518 332.279,156.461 332.059 C 156.403 331.840,156.356 332.019,156.356 332.459 M138.962 332.371 C 138.962 332.490,139.604 333.200,140.388 333.949 L 141.814 335.311 140.445 333.833 C 139.692 333.021,139.050 332.311,139.019 332.255 C 138.987 332.200,138.962 332.252,138.962 332.371 M135.359 334.797 L 135.406 337.136 135.481 334.877 L 135.556 332.618 136.289 333.280 L 137.022 333.942 136.352 333.200 C 135.373 332.117,135.306 332.225,135.359 334.797 M195.603 333.371 C 195.603 333.811,195.650 333.990,195.708 333.771 C 195.765 333.551,195.765 333.192,195.708 332.972 C 195.650 332.752,195.603 332.932,195.603 333.371 M44.687 333.260 C 44.925 333.750,45.534 334.336,46.092 334.611 C 46.281 334.704,46.189 334.580,45.889 334.336 C 45.589 334.092,45.146 333.646,44.904 333.346 C 44.570 332.932,44.518 332.911,44.687 333.260 M353.305 334.969 C 353.305 336.161,353.344 336.649,353.391 336.052 C 353.438 335.456,353.438 334.481,353.391 333.885 C 353.344 333.289,353.305 333.776,353.305 334.969 M92.938 333.686 C 92.837 333.859,92.396 334.218,91.957 334.484 C 91.517 334.750,91.249 334.967,91.359 334.968 C 91.724 334.969,93.050 334.054,93.182 333.709 C 93.345 333.283,93.180 333.268,92.938 333.686 M87.900 334.178 C 88.241 334.537,88.561 334.784,88.611 334.728 C 88.661 334.672,88.382 334.378,87.990 334.076 L 87.279 333.525 87.900 334.178 M120.194 333.768 C 120.853 333.814,121.931 333.814,122.590 333.768 C 123.249 333.722,122.710 333.684,121.392 333.684 C 120.074 333.684,119.535 333.722,120.194 333.768 M151.055 333.803 C 151.055 334.019,152.170 335.082,152.259 334.951 C 152.295 334.898,152.039 334.579,151.690 334.242 C 151.341 333.904,151.055 333.707,151.055 333.803 M205.085 333.768 C 205.748 333.814,206.775 333.814,207.366 333.767 C 207.958 333.720,207.416 333.682,206.161 333.683 C 204.906 333.683,204.422 333.722,205.085 333.768 M84.657 334.340 C 84.653 334.622,86.291 336.344,86.803 336.596 C 87.065 336.725,86.949 336.562,86.547 336.233 C 86.144 335.904,85.555 335.305,85.237 334.902 C 84.920 334.500,84.659 334.247,84.657 334.340 M94.709 335.492 C 93.750 336.617,93.742 336.637,94.556 335.881 C 95.278 335.211,96.017 334.258,95.787 334.294 C 95.751 334.300,95.266 334.839,94.709 335.492 M165.242 335.344 C 165.212 336.246,165.289 336.550,165.577 336.661 C 165.864 336.771,165.894 336.735,165.707 336.510 C 165.572 336.347,165.422 335.755,165.372 335.192 L 165.282 334.170 165.242 335.344 M43.126 335.539 C 43.552 335.978,43.951 336.338,44.014 336.338 C 44.077 336.338,43.780 335.978,43.354 335.539 C 42.929 335.100,42.529 334.740,42.466 334.740 C 42.403 334.740,42.700 335.100,43.126 335.539 M51.850 335.425 C 51.850 335.864,51.897 336.044,51.954 335.824 C 52.012 335.605,52.012 335.245,51.954 335.026 C 51.897 334.806,51.850 334.986,51.850 335.425 M138.734 335.995 C 139.415 336.686,140.024 337.250,140.087 337.250 C 140.150 337.250,139.643 336.686,138.962 335.995 C 138.280 335.305,137.671 334.740,137.608 334.740 C 137.546 334.740,138.052 335.305,138.734 335.995 M47.747 335.126 C 47.966 335.183,48.326 335.183,48.545 335.126 C 48.765 335.069,48.585 335.022,48.146 335.022 C 47.707 335.022,47.527 335.069,47.747 335.126 M332.915 335.040 C 332.915 335.079,333.249 335.413,333.657 335.782 L 334.398 336.452 333.728 335.710 C 333.103 335.019,332.915 334.864,332.915 335.040 M157.692 335.968 L 157.141 336.680 157.794 336.059 C 158.153 335.718,158.401 335.398,158.345 335.348 C 158.289 335.298,157.995 335.577,157.692 335.968 M294.575 336.156 C 294.515 336.746,294.549 337.145,294.653 337.042 C 294.756 336.939,294.805 336.456,294.763 335.968 L 294.685 335.083 294.575 336.156 M142.406 336.110 C 143.067 337.134,143.069 337.137,143.068 336.889 C 143.067 336.774,142.802 336.372,142.479 335.995 L 141.890 335.311 142.406 336.110 M47.171 337.415 C 47.576 337.466,48.295 337.466,48.768 337.417 C 49.242 337.368,48.910 337.326,48.032 337.325 C 47.153 337.324,46.766 337.365,47.171 337.415 M89.618 337.415 C 90.026 337.466,90.693 337.466,91.101 337.415 C 91.509 337.365,91.175 337.323,90.359 337.323 C 89.544 337.323,89.210 337.365,89.618 337.415 M168.454 337.414 C 168.799 337.466,169.364 337.466,169.709 337.414 C 170.054 337.362,169.772 337.319,169.082 337.319 C 168.391 337.319,168.109 337.362,168.454 337.414 M190.359 337.414 C 190.705 337.466,191.269 337.466,191.614 337.414 C 191.959 337.362,191.677 337.319,190.987 337.319 C 190.297 337.319,190.014 337.362,190.359 337.414 M235.767 337.408 C 235.987 337.465,236.346 337.465,236.566 337.408 C 236.786 337.350,236.606 337.303,236.167 337.303 C 235.727 337.303,235.548 337.350,235.767 337.408 M337.426 337.416 C 337.836 337.467,338.452 337.466,338.795 337.413 C 339.138 337.361,338.802 337.320,338.049 337.321 C 337.296 337.322,337.016 337.365,337.426 337.416 M367.089 337.416 C 367.499 337.467,368.115 337.466,368.458 337.413 C 368.801 337.361,368.465 337.320,367.712 337.321 C 366.959 337.322,366.679 337.365,367.089 337.416 M153.166 337.636 C 153.386 337.693,153.745 337.693,153.965 337.636 C 154.184 337.579,154.005 337.532,153.565 337.532 C 153.126 337.532,152.946 337.579,153.166 337.636 " stroke="none" fill="#d5f7fb" fill-rule="evenodd"></path></g></svg>