<svg xmlns="http://www.w3.org/2000/svg" xmlns:xlink="http://www.w3.org/1999/xlink" width="380.45" height="154.37" viewBox="0 0 380.45 154.37"><defs><clipPath id="a"><rect width="380.58" height="154.37" style="fill:none"/></clipPath></defs><g style="clip-path:url(#a)"><path d="M260.42,121a1.73,1.73,0,0,1-1.72,1.73H248.38a1.73,1.73,0,0,1-1.73-1.73V65.85a.56.56,0,0,0-1.08-.21l-22.28,55.53a2.52,2.52,0,0,1-2.35,1.59h-9.86a2.54,2.54,0,0,1-2.35-1.59L186.52,65.88a.56.56,0,0,0-1.08.21V121a1.74,1.74,0,0,1-1.73,1.73h-10A1.73,1.73,0,0,1,172,121V33.34a1.73,1.73,0,0,1,1.73-1.73H184A2.06,2.06,0,0,1,186,32.9l29.52,72.19a.61.61,0,0,0,1.13,0l29.51-72.17a2.09,2.09,0,0,1,1.94-1.3h10.65a1.72,1.72,0,0,1,1.71,1.72Z" style="fill:#7b2679"/><path d="M274.15,45.86a8.95,8.95,0,0,1,0-12.55,8.82,8.82,0,0,1,15.06,6.31,8.43,8.43,0,0,1-2.58,6.18,8.26,8.26,0,0,1-6.18,2.64,8.51,8.51,0,0,1-6.3-2.58m13,17V121a1.72,1.72,0,0,1-1.72,1.72h-9.9a1.72,1.72,0,0,1-1.72-1.72V62.89a1.72,1.72,0,0,1,1.72-1.72h9.9a1.72,1.72,0,0,1,1.72,1.72" style="fill:#7b2679"/><path d="M302.21,31.6H312a1.73,1.73,0,0,1,1.73,1.73V121a1.73,1.73,0,0,1-1.73,1.73h-9.82a1.73,1.73,0,0,1-1.73-1.73V33.33a1.73,1.73,0,0,1,1.73-1.73" style="fill:#7b2679"/><path d="M367.67,121.58a64.39,64.39,0,0,1-.72-6.48,19.13,19.13,0,0,1-7.77,6.73,26.43,26.43,0,0,1-11.94,2.57q-10,0-16.16-5.32c-4.1-3.55-6.12-8.39-6.12-14.51s2-10.71,6.06-14.14,9.49-5.14,16.34-5.14h19.35V82.9c0-8.39-4.59-12.55-13.84-12.55q-10.51,0-15.33,7.77a1.78,1.78,0,0,1-2.39.58l-6.71-3.87a1.77,1.77,0,0,1-.68-2.41q7.64-13.05,25.79-13c7.65,0,13.95,2,18.85,5.88s7.35,10.28,7.35,19v25.22a68.94,68.94,0,0,0,.67,11.51,1.38,1.38,0,0,1-1.36,1.65h-10a1.44,1.44,0,0,1-1.43-1.17m-1-26.93H350.36q-5.78,0-8.81,2.57a9,9,0,0,0-3.06,7.23c0,3.18,1,5.57,3.18,7.22s5.08,2.45,8.82,2.45a16.09,16.09,0,0,0,11.57-4.53c3.12-3,4.65-7.47,4.65-13.41Z" style="fill:#7b2679"/><path d="M114.15,147.07a4.54,4.54,0,1,1-4.54-4.53,4.55,4.55,0,0,1,4.54,4.53" style="fill:#7b2679"/><path d="M114.15,77.18a4.54,4.54,0,1,1-4.54-4.53,4.53,4.53,0,0,1,4.54,4.53" style="fill:#7b2679"/><path d="M155.53,77.18A4.54,4.54,0,1,1,151,72.65a4.53,4.53,0,0,1,4.54,4.53" style="fill:#7b2679"/><path d="M134.84,112.13a4.54,4.54,0,1,1-4.54-4.53,4.53,4.53,0,0,1,4.54,4.53" style="fill:#7b2679"/><path d="M93.47,112.13a4.54,4.54,0,1,1-4.54-4.53,4.53,4.53,0,0,1,4.54,4.53" style="fill:#7b2679"/><path d="M134.71,42.24a4.54,4.54,0,1,1-4.54-4.53,4.55,4.55,0,0,1,4.54,4.53" style="fill:#7b2679"/><path d="M93.32,42.24a4.54,4.54,0,1,1-4.54-4.53,4.55,4.55,0,0,1,4.54,4.53" style="fill:#7b2679"/><path d="M114.15,7.3a4.54,4.54,0,1,1-4.54-4.53,4.54,4.54,0,0,1,4.54,4.53" style="fill:#7b2679"/><path d="M101.7,8.41H90.53a1.1,1.1,0,0,1,0-2.2H101.7a1.1,1.1,0,0,1,0,2.2" style="fill:#7b2679"/><path d="M113.67,71.5a1.15,1.15,0,0,1-.56-.15,1.11,1.11,0,0,1-.39-1.51l12.58-21.3a1.1,1.1,0,0,1,1.89,1.11L114.61,71a1.08,1.08,0,0,1-.94.54" style="fill:#7b2679"/><path d="M93,106.47a1.08,1.08,0,0,1-.55-.15,1.1,1.1,0,0,1-.39-1.5L104.7,83.45a1.1,1.1,0,1,1,1.89,1.12L94,105.93a1.09,1.09,0,0,1-1,.54" style="fill:#7b2679"/><path d="M81.62,125.69a1.15,1.15,0,0,1-.56-.15,1.11,1.11,0,0,1-.39-1.5l3.39-5.62a1.11,1.11,0,0,1,1.51-.39,1.1,1.1,0,0,1,.38,1.51l-3.38,5.61a1.1,1.1,0,0,1-.95.54" style="fill:#7b2679"/><path d="M134.36,106.44a1.09,1.09,0,0,1-.94-1.65L146,83.42a1.1,1.1,0,0,1,1.9,1.12L135.31,105.9a1.09,1.09,0,0,1-.95.54" style="fill:#7b2679"/><path d="M113.72,141.43a1,1,0,0,1-.55-.16,1.09,1.09,0,0,1-.39-1.5l12.61-21.37a1.1,1.1,0,0,1,1.5-.39,1.12,1.12,0,0,1,.39,1.51l-12.61,21.37a1.11,1.11,0,0,1-1,.54" style="fill:#7b2679"/><path d="M92.94,36.62a1.15,1.15,0,0,1-.56-.15A1.09,1.09,0,0,1,92,35l12.64-21.43a1.11,1.11,0,0,1,1.51-.39,1.09,1.09,0,0,1,.38,1.5L93.89,36.08a1.1,1.1,0,0,1-1,.54" style="fill:#7b2679"/><path d="M77.62,62.57a1,1,0,0,1-.55-.16,1.09,1.09,0,0,1-.39-1.5L84,48.57a1.1,1.1,0,0,1,1.89,1.11L78.57,62a1.11,1.11,0,0,1-.95.54" style="fill:#7b2679"/><path d="M84.85,106.46a1.08,1.08,0,0,1-.94-.54L76.78,93.84a1.1,1.1,0,1,1,1.89-1.12L85.8,104.8a1.11,1.11,0,0,1-.39,1.51,1.12,1.12,0,0,1-.56.15" style="fill:#7b2679"/><path d="M105.49,141.43a1.09,1.09,0,0,1-.95-.54L91.93,119.52a1.1,1.1,0,0,1,1.9-1.11l12.6,21.36a1.1,1.1,0,0,1-.39,1.51,1.08,1.08,0,0,1-.55.15" style="fill:#7b2679"/><path d="M126.2,36.51a1.11,1.11,0,0,1-1-.54L112.68,14.66a1.1,1.1,0,0,1,1.89-1.12l12.57,21.31a1.08,1.08,0,0,1-.39,1.5,1,1,0,0,1-.55.16" style="fill:#7b2679"/><path d="M85,36.41a1.12,1.12,0,0,1-1-.53L80.74,30.3a1.1,1.1,0,0,1,.38-1.51,1.12,1.12,0,0,1,1.51.39l3.3,5.58a1.1,1.1,0,0,1-.39,1.5,1.15,1.15,0,0,1-.56.15" style="fill:#7b2679"/><path d="M105.65,71.45a1.08,1.08,0,0,1-.94-.54L92.06,49.47A1.1,1.1,0,0,1,94,48.35L106.6,69.79a1.11,1.11,0,0,1-.39,1.51,1.15,1.15,0,0,1-.56.15" style="fill:#7b2679"/><path d="M126.29,106.42a1.1,1.1,0,0,1-1-.54L112.73,84.51a1.1,1.1,0,0,1,1.89-1.12l12.61,21.38a1.09,1.09,0,0,1-.38,1.5,1.15,1.15,0,0,1-.56.15" style="fill:#7b2679"/><path d="M122.26,43.34H96.69a1.1,1.1,0,1,1,0-2.2h25.57a1.1,1.1,0,0,1,0,2.2" style="fill:#7b2679"/><path d="M146.87,71.54a1.09,1.09,0,0,1-1-.54L133.28,49.58a1.1,1.1,0,0,1,1.9-1.11l12.63,21.41a1.1,1.1,0,0,1-.39,1.51,1.08,1.08,0,0,1-.55.15" style="fill:#7b2679"/><path d="M80.87,41.14a1.1,1.1,0,0,1,0,2.2H72.62a1.1,1.1,0,0,1,0-2.2Z" style="fill:#7b2679"/><path d="M101.7,78.28H87.49a1.1,1.1,0,1,1,0-2.2H101.7a1.1,1.1,0,0,1,0,2.2" style="fill:#7b2679"/><path d="M143.08,78.28H117.53a1.1,1.1,0,0,1,0-2.2h25.55a1.1,1.1,0,0,1,0,2.2" style="fill:#7b2679"/><path d="M81,113.23H72.66a1.1,1.1,0,1,1,0-2.2H81a1.1,1.1,0,1,1,0,2.2" style="fill:#7b2679"/><path d="M122.39,113.23H96.85a1.1,1.1,0,1,1,0-2.2h25.54a1.1,1.1,0,0,1,0,2.2" style="fill:#7b2679"/><path d="M101.7,148.16H90.56a1.1,1.1,0,1,1,0-2.19H101.7a1.1,1.1,0,1,1,0,2.19" style="fill:#7b2679"/><path d="M18.37,62.67A18.38,18.38,0,1,0,0,44.29,18.41,18.41,0,0,0,18.37,62.67" style="fill:#7b2679"/><path d="M42.38,44A13.45,13.45,0,1,0,55.83,30.52,13.46,13.46,0,0,0,42.38,44" style="fill:#7b2679"/><path d="M40.64,24.08A10.47,10.47,0,1,0,30.17,13.62,10.48,10.48,0,0,0,40.64,24.08" style="fill:#7b2679"/><path d="M37.88,89.41A11.89,11.89,0,1,0,26,77.52,11.9,11.9,0,0,0,37.88,89.41" style="fill:#7b2679"/><path d="M10.94,87a9.43,9.43,0,1,0-9.42-9.42A9.43,9.43,0,0,0,10.94,87" style="fill:#7b2679"/><path d="M74.54,27.9A14,14,0,1,0,60.59,14a14,14,0,0,0,14,14" style="fill:#7b2679"/><path d="M40.64,150.55a11,11,0,1,0-11-11,11,11,0,0,0,11,11" style="fill:#7b2679"/><path d="M74.54,154.37a14,14,0,1,0-14-14,14,14,0,0,0,14,14" style="fill:#7b2679"/><path d="M18.38,128.45a18.38,18.38,0,1,1,18.37-18.38,18.4,18.4,0,0,1-18.37,18.38" style="fill:#7b2679"/><path d="M69.76,91.79A14.36,14.36,0,1,1,84.12,77.43,14.37,14.37,0,0,1,69.76,91.79" style="fill:#7b2679"/><path d="M42.38,110.89A13.45,13.45,0,1,0,55.83,97.44a13.46,13.46,0,0,0-13.45,13.45" style="fill:#7b2679"/></g></svg>
